<svg width="20663" height="10590" viewBox="0 0 20663 10590" fill="none" xmlns="http://www.w3.org/2000/svg">
<g clip-path="url(#clip0_1120_9)">
<path d="M20663 8510H17658V13695H20663V8510Z" fill="url(#paint0_linear_1120_9)"/>
<path d="M17716.1 8625.94C17639 8574.65 17638.6 8461.23 17715.2 8409.35L19015.4 7529.52C19103.1 7470.16 19217.9 7470.16 19305.6 7529.52L20605.8 8409.35C20682.4 8461.23 20682 8574.65 20604.9 8625.94L19304 9491.96C19217 9549.85 19104 9549.85 19017 9491.96L17716.1 8625.94Z" fill="#F8FAFC"/>
<path d="M11834 5375H8829V10560H11834V5375Z" fill="url(#paint1_linear_1120_9)"/>
<path d="M8887.06 5490.94C8810 5439.65 8809.57 5326.23 8886.24 5274.35L10186.4 4394.52C10274.1 4335.16 10388.9 4335.16 10476.6 4394.52L11776.8 5274.35C11853.4 5326.23 11853 5439.65 11775.9 5490.94L10475 6356.96C10388 6414.85 10275 6414.85 10188 6356.96L8887.06 5490.94Z" fill="#F8FAFC"/>
<path d="M7486 7124H4481V12309H7486V7124Z" fill="url(#paint2_linear_1120_9)"/>
<path d="M4539.06 7239.94C4462 7188.65 4461.57 7075.23 4538.24 7023.35L5838.35 6143.52C5926.06 6084.16 6040.9 6084.16 6128.61 6143.52L7428.76 7023.35C7505.43 7075.23 7505 7188.65 7427.94 7239.94L6126.96 8105.96C6040.01 8163.85 5926.96 8163.85 5839.99 8105.96L4539.06 7239.94Z" fill="#F8FAFC"/>
<path d="M3005 7044H0V12229H3005V7044Z" fill="url(#paint3_linear_1120_9)"/>
<path d="M58.0582 7159.94C-18.9998 7108.65 -19.4296 6995.23 57.2374 6943.35L1357.35 6063.52C1445.06 6004.16 1559.9 6004.16 1647.61 6063.52L2947.76 6943.35C3024.43 6995.23 3024 7108.65 2946.94 7159.94L1645.96 8025.96C1559.01 8083.85 1445.96 8083.85 1358.99 8025.96L58.0582 7159.94Z" fill="#F8FAFC"/>
<path d="M5456 8070H2451V13255H5456V8070Z" fill="url(#paint4_linear_1120_9)"/>
<path d="M2509.06 8185.94C2432 8134.65 2431.57 8021.23 2508.24 7969.35L3808.35 7089.52C3896.06 7030.16 4010.9 7030.16 4098.61 7089.52L5398.76 7969.35C5475.43 8021.23 5475 8134.65 5397.94 8185.94L4096.96 9051.96C4010.01 9109.85 3896.96 9109.85 3809.99 9051.96L2509.06 8185.94Z" fill="#F8FAFC"/>
<path d="M10110 6757H7105V11942H10110V6757Z" fill="url(#paint5_linear_1120_9)"/>
<path d="M7163.06 6872.94C7086 6821.65 7085.57 6708.23 7162.24 6656.35L8462.35 5776.52C8550.06 5717.16 8664.9 5717.16 8752.61 5776.52L10052.8 6656.35C10129.4 6708.23 10129 6821.65 10051.9 6872.94L8750.96 7738.96C8664.01 7796.85 8550.96 7796.85 8463.99 7738.96L7163.06 6872.94Z" fill="#F8FAFC"/>
<path d="M16529 6430H13524V11615H16529V6430Z" fill="url(#paint6_linear_1120_9)"/>
<path d="M13582.1 6545.94C13505 6494.65 13504.6 6381.23 13581.2 6329.35L14881.4 5449.52C14969.1 5390.16 15083.9 5390.16 15171.6 5449.52L16471.8 6329.35C16548.4 6381.23 16548 6494.65 16470.9 6545.94L15170 7411.96C15083 7469.85 14970 7469.85 14883 7411.96L13582.1 6545.94Z" fill="#F8FAFC"/>
<path d="M14310 7557H11305V12742H14310V7557Z" fill="url(#paint7_linear_1120_9)"/>
<path d="M11363.1 7672.94C11286 7621.65 11285.6 7508.23 11362.2 7456.35L12662.4 6576.52C12750.1 6517.16 12864.9 6517.16 12952.6 6576.52L14252.8 7456.35C14329.4 7508.23 14329 7621.65 14251.9 7672.94L12951 8538.96C12864 8596.85 12751 8596.85 12664 8538.96L11363.1 7672.94Z" fill="#F8FAFC"/>
<path d="M17900 8070H14895V13255H17900V8070Z" fill="url(#paint8_linear_1120_9)"/>
<path d="M14953.1 8185.94C14876 8134.65 14875.6 8021.23 14952.2 7969.35L16252.4 7089.52C16340.1 7030.16 16454.9 7030.16 16542.6 7089.52L17842.8 7969.35C17919.4 8021.23 17919 8134.65 17841.9 8185.94L16541 9051.96C16454 9109.85 16341 9109.85 16254 9051.96L14953.1 8185.94Z" fill="#F8FAFC"/>
<rect y="-36" width="20663" height="10626" fill="url(#paint9_linear_1120_9)"/>
</g>
<defs>
<linearGradient id="paint0_linear_1120_9" x1="17658" y1="11102.5" x2="20663" y2="11102.5" gradientUnits="userSpaceOnUse">
<stop stop-color="#CBD5E1"/>
<stop offset="0.05" stop-color="#E2E8F0"/>
<stop offset="0.44932" stop-color="#E2E8F0"/>
<stop offset="0.55459" stop-color="#F1F5F9"/>
<stop offset="0.985" stop-color="#F1F5F9"/>
</linearGradient>
<linearGradient id="paint1_linear_1120_9" x1="8829" y1="7967.5" x2="11834" y2="7967.5" gradientUnits="userSpaceOnUse">
<stop stop-color="#CBD5E1"/>
<stop offset="0.05" stop-color="#E2E8F0"/>
<stop offset="0.44932" stop-color="#E2E8F0"/>
<stop offset="0.55459" stop-color="#F1F5F9"/>
<stop offset="0.985" stop-color="#F1F5F9"/>
</linearGradient>
<linearGradient id="paint2_linear_1120_9" x1="4481" y1="9716.5" x2="7486" y2="9716.5" gradientUnits="userSpaceOnUse">
<stop stop-color="#CBD5E1"/>
<stop offset="0.05" stop-color="#E2E8F0"/>
<stop offset="0.44932" stop-color="#E2E8F0"/>
<stop offset="0.55459" stop-color="#F1F5F9"/>
<stop offset="0.985" stop-color="#F1F5F9"/>
</linearGradient>
<linearGradient id="paint3_linear_1120_9" x1="0" y1="9636.5" x2="3005" y2="9636.5" gradientUnits="userSpaceOnUse">
<stop stop-color="#CBD5E1"/>
<stop offset="0.05" stop-color="#E2E8F0"/>
<stop offset="0.44932" stop-color="#E2E8F0"/>
<stop offset="0.55459" stop-color="#F1F5F9"/>
<stop offset="0.985" stop-color="#F1F5F9"/>
</linearGradient>
<linearGradient id="paint4_linear_1120_9" x1="2451" y1="10662.5" x2="5456" y2="10662.5" gradientUnits="userSpaceOnUse">
<stop stop-color="#CBD5E1"/>
<stop offset="0.05" stop-color="#E2E8F0"/>
<stop offset="0.44932" stop-color="#E2E8F0"/>
<stop offset="0.55459" stop-color="#F1F5F9"/>
<stop offset="0.985" stop-color="#F1F5F9"/>
</linearGradient>
<linearGradient id="paint5_linear_1120_9" x1="7105" y1="9349.5" x2="10110" y2="9349.5" gradientUnits="userSpaceOnUse">
<stop stop-color="#CBD5E1"/>
<stop offset="0.05" stop-color="#E2E8F0"/>
<stop offset="0.44932" stop-color="#E2E8F0"/>
<stop offset="0.55459" stop-color="#F1F5F9"/>
<stop offset="0.985" stop-color="#F1F5F9"/>
</linearGradient>
<linearGradient id="paint6_linear_1120_9" x1="13524" y1="9022.5" x2="16529" y2="9022.5" gradientUnits="userSpaceOnUse">
<stop stop-color="#CBD5E1"/>
<stop offset="0.05" stop-color="#E2E8F0"/>
<stop offset="0.44932" stop-color="#E2E8F0"/>
<stop offset="0.55459" stop-color="#F1F5F9"/>
<stop offset="0.985" stop-color="#F1F5F9"/>
</linearGradient>
<linearGradient id="paint7_linear_1120_9" x1="11305" y1="10149.5" x2="14310" y2="10149.5" gradientUnits="userSpaceOnUse">
<stop stop-color="#CBD5E1"/>
<stop offset="0.05" stop-color="#E2E8F0"/>
<stop offset="0.44932" stop-color="#E2E8F0"/>
<stop offset="0.55459" stop-color="#F1F5F9"/>
<stop offset="0.985" stop-color="#F1F5F9"/>
</linearGradient>
<linearGradient id="paint8_linear_1120_9" x1="14895" y1="10662.5" x2="17900" y2="10662.5" gradientUnits="userSpaceOnUse">
<stop stop-color="#CBD5E1"/>
<stop offset="0.05" stop-color="#E2E8F0"/>
<stop offset="0.44932" stop-color="#E2E8F0"/>
<stop offset="0.55459" stop-color="#F1F5F9"/>
<stop offset="0.985" stop-color="#F1F5F9"/>
</linearGradient>
<linearGradient id="paint9_linear_1120_9" x1="10331.5" y1="10590" x2="10331.5" y2="-36" gradientUnits="userSpaceOnUse">
<stop stop-color="white"/>
<stop offset="0.105" stop-color="white" stop-opacity="0"/>
</linearGradient>
<clipPath id="clip0_1120_9">
<rect width="20663" height="10590" fill="white"/>
</clipPath>
</defs>
</svg>
