<svg width="1175" height="1176" viewBox="0 0 1175 1176" fill="none" xmlns="http://www.w3.org/2000/svg">
<path d="M830.814 406.736L713.84 525.159" stroke="url(#paint0_linear_318_8)" stroke-width="84" stroke-linecap="round"/>
<path d="M813.818 323.79L310.931 828.462" stroke="url(#paint1_linear_318_8)" stroke-width="84" stroke-linecap="round"/>
<path d="M1085.18 632.02L568.373 1148.75" stroke="black" stroke-width="10" stroke-linecap="round"/>
<path d="M1085.18 632.02L568.373 1148.75" stroke="url(#paint2_linear_318_8)" stroke-width="10" stroke-linecap="round"/>
<path d="M870.856 380.753L354.045 897.487" stroke="black" stroke-width="10" stroke-linecap="round"/>
<path d="M870.856 380.753L354.045 897.487" stroke="url(#paint3_linear_318_8)" stroke-width="10" stroke-linecap="round"/>
<path d="M554.927 103.933L88.9802 568.631" stroke="black" stroke-width="10" stroke-linecap="round"/>
<path d="M554.927 103.933L88.9802 568.631" stroke="url(#paint4_linear_318_8)" stroke-width="10" stroke-linecap="round"/>
<path d="M1033.82 382.752L368.917 1049.32" stroke="black" stroke-width="10" stroke-linecap="round"/>
<path d="M1033.82 382.752L368.917 1049.32" stroke="url(#paint5_linear_318_8)" stroke-width="10" stroke-linecap="round"/>
<path d="M769.828 922.401L668.851 1025.33" stroke="url(#paint6_linear_318_8)" stroke-width="84" stroke-linecap="round"/>
<path d="M1026.77 449.708L427.904 1046.32" stroke="url(#paint7_linear_318_8)" stroke-width="84" stroke-linecap="round"/>
<path d="M1026.77 575.626L561.875 1039.33" stroke="url(#paint8_linear_318_8)" stroke-width="84" stroke-linecap="round"/>
<path d="M830.814 179.883L161.964 846.451" stroke="url(#paint9_linear_318_8)" stroke-width="84" stroke-linecap="round"/>
<path d="M769.828 494.679L351.921 907.411" stroke="url(#paint10_linear_318_8)" stroke-width="84" stroke-linecap="round"/>
<path d="M665.851 108.93L143.968 630.591" stroke="url(#paint11_linear_318_8)" stroke-width="84" stroke-linecap="round"/>
<path d="M638.857 236.846L220.951 652.576" stroke="url(#paint12_linear_318_8)" stroke-width="84" stroke-linecap="round"/>
<path d="M200.955 653.576L161.964 693.55" stroke="url(#paint13_linear_318_8)" stroke-width="84" stroke-linecap="round"/>
<g filter="url(#filter0_dd_318_8)">
<rect x="268.94" y="273.822" width="633.858" height="633.589" rx="316.794" fill="white"/>
</g>
<rect width="82.9638" height="264.22" rx="41.4819" transform="matrix(0.707028 0.707186 -0.707028 0.707186 1116.32 0.237305)" fill="url(#paint14_linear_318_8)"/>
<rect y="1092.29" width="82.9815" height="82.9462" rx="41.4731" fill="url(#paint15_linear_318_8)"/>
<rect x="117.974" y="353.771" width="82.9815" height="82.9462" rx="41.4731" fill="url(#paint16_linear_318_8)"/>
<g clip-path="url(#clip0_318_8)">
<rect width="391.16" height="391.16" transform="translate(390 395)" fill="white"/>
<path d="M721.151 531.905C714.278 529.406 707.092 526.908 699.593 524.722C701.468 517.227 703.03 509.732 704.28 502.549C710.841 461.326 703.655 432.282 683.66 421.039C677.723 417.604 671.162 416.042 663.664 416.042C641.794 416.042 613.988 432.282 585.869 459.452C557.75 432.282 529.944 416.042 508.074 416.042C500.575 416.042 494.014 417.604 488.078 421.039C468.083 432.594 460.897 461.638 467.458 502.549C468.708 509.732 470.27 517.227 472.144 524.722C464.646 526.908 457.46 529.094 450.587 531.905C411.533 546.895 390.288 567.507 390.288 590.617C390.288 613.727 411.845 634.338 450.587 649.329C457.46 651.827 464.646 654.325 472.144 656.511C470.27 664.007 468.708 671.502 467.458 678.685C460.897 719.908 468.083 748.951 488.078 760.194C494.014 763.629 500.575 765.191 508.074 765.191C530.256 765.191 558.063 748.951 585.869 721.782C613.988 748.951 641.794 765.191 663.664 765.191C671.162 765.191 677.723 763.629 683.66 760.194C703.655 748.639 710.841 719.595 704.28 678.685C703.03 671.502 701.468 664.007 699.593 656.511C707.092 654.325 714.278 652.139 721.151 649.329C760.205 634.338 781.45 613.727 781.45 590.617C781.45 567.507 760.205 546.895 721.151 531.905ZM674.911 436.654C687.721 444.149 692.095 467.259 686.784 500.05C685.847 506.609 684.284 513.479 682.41 520.662C666.163 516.915 648.98 514.416 630.859 512.855C620.236 497.864 609.301 484.436 598.366 472.256C621.486 449.458 644.918 433.843 663.976 433.843C668.038 433.843 671.787 434.78 674.911 436.654ZM639.919 621.846C634.296 631.84 627.735 641.833 620.861 651.827C609.301 652.764 597.741 653.076 585.869 653.076C573.684 653.076 562.124 652.764 550.877 651.827C544.003 641.833 537.755 631.84 532.131 621.846C526.195 611.541 520.571 600.922 515.572 590.617C520.571 580.311 526.195 569.693 532.131 559.387C537.755 549.393 544.316 539.4 551.189 529.406C562.749 528.47 574.309 528.157 586.181 528.157C598.366 528.157 609.926 528.47 621.174 529.406C628.047 539.4 634.296 549.393 639.919 559.387C645.855 569.693 651.479 580.311 656.478 590.617C651.167 600.922 645.855 611.228 639.919 621.846ZM665.851 611.541C670.537 622.471 674.287 633.089 677.723 643.707C667.101 646.206 655.853 648.079 643.981 649.641C647.73 643.707 651.792 637.461 655.228 630.903C658.978 624.345 662.414 617.787 665.851 611.541ZM585.869 696.173C578.371 688.053 571.185 679.309 564.311 670.252C571.497 670.565 578.683 670.877 585.869 670.877C593.055 670.877 600.241 670.565 607.427 670.252C600.553 679.309 593.367 688.053 585.869 696.173ZM527.757 649.329C515.885 647.767 504.637 645.893 494.014 643.395C497.451 633.089 501.2 622.159 505.887 611.228C509.324 617.474 512.76 624.032 516.509 630.278C520.259 637.149 524.008 643.083 527.757 649.329ZM505.887 569.693C501.2 558.762 497.451 548.144 494.014 537.526C504.637 535.028 515.885 533.154 527.757 531.592C524.008 537.526 519.946 543.772 516.509 550.33C512.76 556.889 509.324 563.447 505.887 569.693ZM585.869 485.06C593.367 493.18 600.553 501.924 607.427 510.981C600.241 510.669 593.055 510.356 585.869 510.356C578.683 510.356 571.497 510.669 564.311 510.981C571.185 501.924 578.371 493.18 585.869 485.06ZM655.228 550.643L643.981 531.905C655.853 533.466 667.101 535.34 677.723 537.838C674.287 548.144 670.537 559.075 665.851 570.005C662.414 563.447 658.978 556.889 655.228 550.643ZM484.954 500.05C479.643 467.259 484.017 444.149 496.826 436.654C499.951 434.78 503.7 433.843 507.761 433.843C526.507 433.843 549.939 449.146 573.372 472.256C562.437 484.123 551.502 497.864 540.879 512.855C522.758 514.416 505.574 517.227 489.328 520.662C487.453 513.479 486.204 506.609 484.954 500.05ZM407.784 590.617C407.784 575.939 425.592 560.324 456.835 548.769C463.084 546.27 469.957 544.084 476.831 542.211C481.83 557.825 488.078 574.377 495.577 590.929C488.078 607.481 481.517 623.72 476.831 639.335C433.715 626.843 407.784 608.105 407.784 590.617ZM496.826 744.579C484.017 737.084 479.643 713.974 484.954 681.183C485.891 674.625 487.453 667.754 489.328 660.571C505.574 664.319 522.758 666.817 540.879 668.379C551.502 683.369 562.437 696.798 573.372 708.977C550.252 731.775 526.82 747.39 507.761 747.39C503.7 747.39 499.951 746.453 496.826 744.579ZM686.784 681.183C692.095 713.974 687.721 737.084 674.911 744.579C671.787 746.453 668.038 747.39 663.976 747.39C645.231 747.39 621.798 732.087 598.366 708.977C609.301 697.11 620.236 683.369 630.859 668.379C648.98 666.817 666.163 664.007 682.41 660.571C684.284 667.754 685.534 674.625 686.784 681.183ZM714.903 632.465C708.654 634.963 701.78 637.149 694.907 639.023C689.908 623.408 683.66 606.856 676.161 590.304C683.66 573.753 690.221 557.513 694.907 541.898C738.022 554.39 763.954 573.128 763.954 590.617C763.954 605.295 745.833 620.91 714.903 632.465Z" fill="#61DAFB"/>
<path d="M585.869 626.218C605.54 626.218 621.486 610.279 621.486 590.617C621.486 570.954 605.54 555.015 585.869 555.015C566.198 555.015 550.252 570.954 550.252 590.617C550.252 610.279 566.198 626.218 585.869 626.218Z" fill="#61DAFB"/>
<animateTransform  attributeName="transform" begin="0s" dur="10s" type="rotate" from="0 590 590" to="360 586 586" repeatCount="indefinite" />
</g>
<path d="M935.291 516.165L818.317 634.588" stroke="url(#paint17_linear_318_8)" stroke-width="84" stroke-linecap="round"/>
<path d="M427.904 420.727L328.926 519.663" stroke="url(#paint18_linear_318_8)" stroke-width="84" stroke-linecap="round"/>
<defs>
<filter id="filter0_dd_318_8" x="264.94" y="269.822" width="673.858" height="673.589" filterUnits="userSpaceOnUse" color-interpolation-filters="sRGB">
<feFlood flood-opacity="0" result="BackgroundImageFix"/>
<feColorMatrix in="SourceAlpha" type="matrix" values="0 0 0 0 0 0 0 0 0 0 0 0 0 0 0 0 0 0 127 0" result="hardAlpha"/>
<feOffset dx="16" dy="16"/>
<feGaussianBlur stdDeviation="10"/>
<feComposite in2="hardAlpha" operator="out"/>
<feColorMatrix type="matrix" values="0 0 0 0 0 0 0 0 0 0 0 0 0 0 0 0 0 0 0.5 0"/>
<feBlend mode="normal" in2="BackgroundImageFix" result="effect1_dropShadow_318_8"/>
<feColorMatrix in="SourceAlpha" type="matrix" values="0 0 0 0 0 0 0 0 0 0 0 0 0 0 0 0 0 0 127 0" result="hardAlpha"/>
<feOffset dx="8" dy="8"/>
<feGaussianBlur stdDeviation="2"/>
<feComposite in2="hardAlpha" operator="out"/>
<feColorMatrix type="matrix" values="0 0 0 0 0 0 0 0 0 0 0 0 0 0 0 0 0 0 0.25 0"/>
<feBlend mode="normal" in2="effect1_dropShadow_318_8" result="effect2_dropShadow_318_8"/>
<feBlend mode="normal" in="SourceGraphic" in2="effect2_dropShadow_318_8" result="shape"/>
</filter>
<linearGradient id="paint0_linear_318_8" x1="834.813" y1="402.239" x2="709.395" y2="528.211" gradientUnits="userSpaceOnUse">
<stop/>
<stop offset="1" stop-color="#666666"/>
</linearGradient>
<linearGradient id="paint1_linear_318_8" x1="831.011" y1="304.625" x2="296.569" y2="846.154" gradientUnits="userSpaceOnUse">
<stop/>
<stop offset="1" stop-color="#666666"/>
</linearGradient>
<linearGradient id="paint2_linear_318_8" x1="1102.84" y1="612.405" x2="560.325" y2="1173.33" gradientUnits="userSpaceOnUse">
<stop/>
<stop offset="1" stop-color="#666666"/>
</linearGradient>
<linearGradient id="paint3_linear_318_8" x1="888.517" y1="361.138" x2="345.997" y2="922.065" gradientUnits="userSpaceOnUse">
<stop/>
<stop offset="1" stop-color="#666666"/>
</linearGradient>
<linearGradient id="paint4_linear_318_8" x1="570.849" y1="86.2931" x2="83.0053" y2="591.97" gradientUnits="userSpaceOnUse">
<stop/>
<stop offset="1" stop-color="#666666"/>
</linearGradient>
<linearGradient id="paint5_linear_318_8" x1="1056.54" y1="357.45" x2="356.652" y2="1079.17" gradientUnits="userSpaceOnUse">
<stop/>
<stop offset="1" stop-color="#666666"/>
</linearGradient>
<linearGradient id="paint6_linear_318_8" x1="773.28" y1="918.493" x2="664.266" y2="1027.24" gradientUnits="userSpaceOnUse">
<stop/>
<stop offset="1" stop-color="#666666"/>
</linearGradient>
<linearGradient id="paint7_linear_318_8" x1="1047.24" y1="427.052" x2="415.516" y2="1071.85" gradientUnits="userSpaceOnUse">
<stop/>
<stop offset="1" stop-color="#666666"/>
</linearGradient>
<linearGradient id="paint8_linear_318_8" x1="1042.66" y1="558.018" x2="551.662" y2="1058.59" gradientUnits="userSpaceOnUse">
<stop/>
<stop offset="1" stop-color="#666666"/>
</linearGradient>
<linearGradient id="paint9_linear_318_8" x1="853.681" y1="154.571" x2="147.876" y2="874.731" gradientUnits="userSpaceOnUse">
<stop/>
<stop offset="1" stop-color="#666666"/>
</linearGradient>
<linearGradient id="paint10_linear_318_8" x1="784.115" y1="479.006" x2="347.185" y2="928.871" gradientUnits="userSpaceOnUse">
<stop/>
<stop offset="1" stop-color="#666666"/>
</linearGradient>
<linearGradient id="paint11_linear_318_8" x1="683.693" y1="89.1198" x2="131.293" y2="651.07" gradientUnits="userSpaceOnUse">
<stop/>
<stop offset="1" stop-color="#666666"/>
</linearGradient>
<linearGradient id="paint12_linear_318_8" x1="653.145" y1="221.059" x2="212.959" y2="671.008" gradientUnits="userSpaceOnUse">
<stop/>
<stop offset="1" stop-color="#666666"/>
</linearGradient>
<linearGradient id="paint13_linear_318_8" x1="202.288" y1="652.058" x2="159.954" y2="694.048" gradientUnits="userSpaceOnUse">
<stop/>
<stop offset="1" stop-color="#666666"/>
</linearGradient>
<linearGradient id="paint14_linear_318_8" x1="82.9638" y1="0.233458" x2="-67.8538" y2="47.5058" gradientUnits="userSpaceOnUse">
<stop stop-color="#D9D9D9"/>
<stop offset="1" stop-color="#737373"/>
</linearGradient>
<linearGradient id="paint15_linear_318_8" x1="82.9815" y1="1092.36" x2="0.0352393" y2="1175.2" gradientUnits="userSpaceOnUse">
<stop stop-color="#D9D9D9"/>
<stop offset="1" stop-color="#737373"/>
</linearGradient>
<linearGradient id="paint16_linear_318_8" x1="200.955" y1="353.844" x2="118.009" y2="436.679" gradientUnits="userSpaceOnUse">
<stop stop-color="#D9D9D9"/>
<stop offset="1" stop-color="#737373"/>
</linearGradient>
<linearGradient id="paint17_linear_318_8" x1="939.29" y1="511.668" x2="813.872" y2="637.64" gradientUnits="userSpaceOnUse">
<stop/>
<stop offset="1" stop-color="#666666"/>
</linearGradient>
<linearGradient id="paint18_linear_318_8" x1="431.288" y1="416.97" x2="326.522" y2="523.547" gradientUnits="userSpaceOnUse">
<stop/>
<stop offset="1" stop-color="#666666"/>
</linearGradient>
<clipPath id="clip0_318_8">
<rect width="391.16" height="391.16" fill="white" transform="translate(390 395)"/>
</clipPath>
</defs>
</svg>
