<svg xmlns="http://www.w3.org/2000/svg" fill="none" viewBox="0 0 64 64" id="Error-Warning-1--Streamline-Porto.svg" height="64" width="64"><desc>Error Warning 1 Streamline Illustration: https://streamlinehq.com</desc><g id="error warning 1"><path id="Vector" fill="#cbd5e1" stroke="#020617" d="M1 8a4 4 0 0 1 4 -4h41a4 4 0 0 1 4 4v30a4 4 0 0 1 -4 4H5a4 4 0 0 1 -4 -4V8Z" stroke-width="1"></path><path id="Vector_2" fill="#cbd5e1" stroke="#020617" d="M1 8a4 4 0 0 1 4 -4h41a4 4 0 0 1 4 4v2H1V8Z" stroke-width="1"></path><path id="Vector_3" fill="#ffffff" stroke="#020617" d="M46 4H8a4 4 0 0 0 -4 4v30a4 4 0 0 0 4 4h38a4 4 0 0 0 4 -4V8a4 4 0 0 0 -4 -4Z" stroke-width="1"></path><path id="Vector_4" fill="#cbd5e1" stroke="#cbd5e1" stroke-linejoin="round" d="M44 15H10a1 1 0 0 0 -1 1v18a1 1 0 0 0 1 1h34a1 1 0 0 0 1 -1V16a1 1 0 0 0 -1 -1Z" stroke-width="1"></path><path id="Vector_5" fill="#ffffff" stroke="#cbd5e1" stroke-linejoin="round" d="M9 16a1 1 0 0 1 1 -1h34a1 1 0 0 1 1 1v2H9v-2Z" stroke-width="1"></path><path id="Vector_6" stroke="#ffffff" stroke-linecap="round" stroke-linejoin="round" d="M13.31 22h27.588" stroke-width="1"></path><path id="Vector_7" stroke="#ffffff" stroke-linecap="round" stroke-linejoin="round" d="M13.31 25h12.932" stroke-width="1"></path><path id="Vector_8" fill="#ffffff" stroke="#ffffff" stroke-linejoin="round" d="M19.5 30h-6a0.5 0.5 0 0 0 0 1h6a0.5 0.5 0 0 0 0 -1Z" stroke-width="1"></path><path id="Vector_9" fill="#ffffff" stroke="#020617" d="M4 8a4 4 0 0 1 4 -4h38a4 4 0 0 1 4 4v2H4V8Z" stroke-width="1"></path><path id="Vector_10" stroke="#020617" stroke-linecap="round" stroke-linejoin="round" d="M8.509 7h0.862" stroke-width="1"></path><path id="Vector_11" stroke="#020617" stroke-linecap="round" stroke-linejoin="round" d="M13.682 7h0.862" stroke-width="1"></path><path id="Vector_12" stroke="#020617" stroke-linecap="round" stroke-linejoin="round" d="M11.095 7h0.863" stroke-width="1"></path><path id="Vector_13" fill="#475569" stroke="#020617" stroke-linecap="round" stroke-linejoin="round" d="m62.462 53.438 -16.31 -30.11A4.444 4.444 0 0 0 42.243 21h-5.062a4.443 4.443 0 0 0 -3.908 2.328l-16.31 30.11A4.444 4.444 0 0 0 20.872 60h37.685a4.445 4.445 0 0 0 3.909 -6.562h-0.004Z" stroke-width="1"></path><path id="Vector_14" fill="#475569" stroke="#020617" stroke-linecap="round" stroke-linejoin="round" d="m62.462 53.438 -16.31 -30.11A4.443 4.443 0 0 0 42.243 21h-0.276a4.445 4.445 0 0 0 -3.908 2.328l-16.31 30.11a4.447 4.447 0 0 0 0.765 5.26A4.445 4.445 0 0 0 25.656 60h32.897a4.445 4.445 0 0 0 3.909 -6.562Z" stroke-width="1"></path><path id="Vector_15" stroke="#ffffff" stroke-linecap="round" stroke-linejoin="round" d="M25.655 57.214a1.657 1.657 0 0 1 -1.462 -2.448l16.316 -30.113a1.657 1.657 0 0 1 1.462 -0.867h0.276a1.657 1.657 0 0 1 1.463 0.87l16.302 30.108a1.658 1.658 0 0 1 -1.463 2.45H25.655Z" stroke-width="1"></path><path id="Vector_16" stroke="#020617" stroke-linecap="round" stroke-linejoin="round" stroke-width="1" d="M42.105 34.929v12.535"></path><path id="Vector_17" fill="#020617" d="M42.105 50.25a1.393 1.393 0 1 0 0 2.787 1.393 1.393 0 0 0 0 -2.787Z" stroke-width="1"></path></g></svg>