<svg width="200" height="200" viewBox="0 0 200 200" fill="none" xmlns="http://www.w3.org/2000/svg">
<path d="M119.432 11.4286L74.8093 11.4286C71.0482 11.4286 67.795 14.0485 66.9932 17.7231L31.8321 178.865C30.7437 183.853 34.5428 188.571 39.6482 188.571H46.6731C50.4343 188.571 53.6876 185.951 54.4893 182.276L69.6961 112.571L74.6826 89.7143L85.4017 40.5806C86.2033 36.9058 89.4566 34.2857 93.2178 34.2857H117.812C121.522 34.2857 124.745 31.7352 125.598 28.1246L127.218 21.2675C128.404 16.2441 124.593 11.4286 119.432 11.4286Z" fill="#2287FD"/>
<path d="M123.333 89.7143H98.0669C94.2819 89.7143 91.0148 92.3669 90.2375 96.0713L88.7985 102.928C87.7554 107.899 91.5487 112.571 96.628 112.571H114.856C119.961 112.571 123.76 117.289 122.672 122.277L114.569 159.419C113.767 163.094 110.514 165.714 106.753 165.714H81.7077C77.9424 165.714 74.6867 168.34 73.8892 172.02L72.3868 178.952C71.3064 183.937 75.1045 188.647 80.2053 188.647H131.588L160.129 188.588C164.541 188.579 168.113 185 168.113 180.588V173.714C168.113 169.296 164.531 165.714 160.113 165.714H146.525C141.42 165.714 137.621 160.997 138.709 156.009L168.138 21.1346C169.226 16.1464 165.427 11.4289 160.321 11.4291L153.297 11.4295C149.536 11.4297 146.283 14.0497 145.481 17.7243L131.149 83.4195C130.348 87.0942 127.094 89.7143 123.333 89.7143Z" fill="#2287FD"/>
</svg>
