<svg xmlns="http://www.w3.org/2000/svg" fill="none" viewBox="0 0 64 64" id="Mars-Rover--Streamline-Porto.svg" height="64" width="64"><desc>Mars Rover Streamline Illustration: https://streamlinehq.com</desc><g id="Mars rover"><g id="Mars rover_2"><path id="Vector" fill="#ffffff" stroke="#020617" stroke-linecap="round" stroke-linejoin="round" d="M37 28h2c0.2652 0 0.5196 0.1054 0.7071 0.2929S40 28.7348 40 29v6h-4v-6c0 -0.2652 0.1054 -0.5196 0.2929 -0.7071S36.7348 28 37 28Z" stroke-width="1"></path><path id="Vector_2" fill="#cbd5e1" stroke="#020617" stroke-linecap="round" stroke-linejoin="round" d="M39 28c0.2652 0 0.5196 0.1054 0.7071 0.2929S40 28.7348 40 29v6h-2v-6c0 -0.2652 0.1054 -0.5196 0.2929 -0.7071S38.7348 28 39 28Z" stroke-width="1"></path><path id="Vector_3" fill="#475569" stroke="#020617" stroke-linecap="round" stroke-linejoin="round" d="M53.3945 30h-7.8763c-0.3398 0 -0.6741 0.0866 -0.9712 0.2517L36 35h9l3 7 8.1094 -5.4063c0.274 -0.1826 0.4986 -0.4301 0.6539 -0.7204 0.1554 -0.2903 0.2367 -0.6144 0.2367 -0.9437v-1.8592c0 -0.3293 -0.0813 -0.6534 -0.2367 -0.9437 -0.1553 -0.2903 -0.3799 -0.5378 -0.6539 -0.7204l-1.6056 -1.0704c-0.3285 -0.219 -0.7145 -0.3359 -1.1093 -0.3359Z" stroke-width="1"></path><path id="Vector_4" stroke="#020617" stroke-linecap="round" stroke-linejoin="round" d="M37 57v-6l-7 -6 -7 6v6" stroke-width="1"></path><path id="Vector_5" stroke="#020617" stroke-linecap="round" stroke-linejoin="round" d="m30 45 -10 -5L7 51v6" stroke-width="1"></path><path id="Vector_6" fill="#ffffff" stroke="#020617" stroke-linecap="round" stroke-linejoin="round" d="M41 51h-4c-1.5913 0 -3.1174 0.6321 -4.2426 1.7574C31.6321 53.8826 31 55.4087 31 57c0 1.5913 0.6321 3.1174 1.7574 4.2426C33.8826 62.3679 35.4087 63 37 63h4c1.5913 0 3.1174 -0.6321 4.2426 -1.7574C46.3679 60.1174 47 58.5913 47 57c0 -1.5913 -0.6321 -3.1174 -1.7574 -4.2426C44.1174 51.6321 42.5913 51 41 51Z" stroke-width="1"></path><path id="Vector_7" stroke="#020617" stroke-linecap="round" stroke-linejoin="round" d="M41 63c3.3137 0 6 -2.6863 6 -6s-2.6863 -6 -6 -6 -6 2.6863 -6 6 2.6863 6 6 6Z" stroke-width="1"></path><path id="Vector_8" fill="#ffffff" stroke="#020617" stroke-linecap="round" stroke-linejoin="round" d="M41 60c1.6569 0 3 -1.3431 3 -3s-1.3431 -3 -3 -3 -3 1.3431 -3 3 1.3431 3 3 3Z" stroke-width="1"></path><path id="Vector_9" fill="#cbd5e1" stroke="#020617" stroke-linecap="round" stroke-linejoin="round" d="M30 47c1.1046 0 2 -0.8954 2 -2s-0.8954 -2 -2 -2 -2 0.8954 -2 2 0.8954 2 2 2Z" stroke-width="1"></path><path id="Vector_10" fill="#ffffff" stroke="#020617" stroke-linecap="round" stroke-linejoin="round" d="M30 45.25c0.1381 0 0.25 -0.1119 0.25 -0.25s-0.1119 -0.25 -0.25 -0.25 -0.25 0.1119 -0.25 0.25 0.1119 0.25 0.25 0.25Z" stroke-width="1"></path><path id="Vector_11" fill="#ffffff" stroke="#020617" stroke-linecap="round" stroke-linejoin="round" d="M20 42c1.1046 0 2 -0.8954 2 -2s-0.8954 -2 -2 -2 -2 0.8954 -2 2 0.8954 2 2 2Z" stroke-width="1"></path><path id="Vector_12" fill="#ffffff" stroke="#020617" stroke-linecap="round" stroke-linejoin="round" d="M20 40.25c0.1381 0 0.25 -0.1119 0.25 -0.25s-0.1119 -0.25 -0.25 -0.25 -0.25 0.1119 -0.25 0.25 0.1119 0.25 0.25 0.25Z" stroke-width="1"></path><path id="Vector_13" fill="#020617" stroke="#020617" stroke-linecap="round" stroke-linejoin="round" d="M41 51h-4c-1.5913 0 -3.1174 0.6321 -4.2426 1.7574C31.6321 53.8826 31 55.4087 31 57c0 1.5913 0.6321 3.1174 1.7574 4.2426C33.8826 62.3679 35.4087 63 37 63h4c1.5913 0 3.1174 -0.6321 4.2426 -1.7574C46.3679 60.1174 47 58.5913 47 57c0 -1.5913 -0.6321 -3.1174 -1.7574 -4.2426C44.1174 51.6321 42.5913 51 41 51Z" stroke-width="1"></path><path id="Vector_14" fill="#cbd5e1" stroke="#020617" stroke-linecap="round" stroke-linejoin="round" d="M41 63c3.3137 0 6 -2.6863 6 -6s-2.6863 -6 -6 -6 -6 2.6863 -6 6 2.6863 6 6 6Z" stroke-width="1"></path><path id="Vector_15" fill="#cbd5e1" stroke="#020617" stroke-linecap="round" stroke-linejoin="round" d="M41 59c1.1046 0 2 -0.8954 2 -2s-0.8954 -2 -2 -2 -2 0.8954 -2 2 0.8954 2 2 2Z" stroke-width="1"></path><path id="Vector_16" fill="#020617" stroke="#020617" stroke-linecap="round" stroke-linejoin="round" d="M27 51h-4c-1.5913 0 -3.1174 0.6321 -4.2426 1.7574C17.6321 53.8826 17 55.4087 17 57c0 1.5913 0.6321 3.1174 1.7574 4.2426C19.8826 62.3679 21.4087 63 23 63h4c1.5913 0 3.1174 -0.6321 4.2426 -1.7574C32.3679 60.1174 33 58.5913 33 57c0 -1.5913 -0.6321 -3.1174 -1.7574 -4.2426C30.1174 51.6321 28.5913 51 27 51Z" stroke-width="1"></path><path id="Vector_17" fill="#cbd5e1" stroke="#020617" stroke-linecap="round" stroke-linejoin="round" d="M27 63c3.3137 0 6 -2.6863 6 -6s-2.6863 -6 -6 -6 -6 2.6863 -6 6 2.6863 6 6 6Z" stroke-width="1"></path><path id="Vector_18" fill="#cbd5e1" stroke="#020617" stroke-linecap="round" stroke-linejoin="round" d="M27 59c1.1046 0 2 -0.8954 2 -2s-0.8954 -2 -2 -2 -2 0.8954 -2 2 0.8954 2 2 2Z" stroke-width="1"></path><path id="Vector_19" fill="#020617" stroke="#020617" stroke-linecap="round" stroke-linejoin="round" d="M11 51H7c-1.5913 0 -3.11742 0.6321 -4.24264 1.7574C1.63214 53.8826 1 55.4087 1 57c0 1.5913 0.63214 3.1174 1.75736 4.2426C3.88258 62.3679 5.4087 63 7 63h4c1.5913 0 3.1174 -0.6321 4.2426 -1.7574C16.3679 60.1174 17 58.5913 17 57c0 -1.5913 -0.6321 -3.1174 -1.7574 -4.2426C14.1174 51.6321 12.5913 51 11 51Z" stroke-width="1"></path><path id="Vector_20" fill="#ffffff" stroke="#020617" stroke-linecap="round" stroke-linejoin="round" d="M11 63c3.3137 0 6 -2.6863 6 -6s-2.6863 -6 -6 -6c-3.31371 0 -6 2.6863 -6 6s2.68629 6 6 6Z" stroke-width="1"></path><path id="Vector_21" fill="#cbd5e1" stroke="#020617" stroke-linecap="round" stroke-linejoin="round" d="M11 59c1.1046 0 2 -0.8954 2 -2s-0.8954 -2 -2 -2c-1.10457 0 -2 0.8954 -2 2s0.89543 2 2 2Z" stroke-width="1"></path><path id="Vector_22" fill="#ffffff" stroke="#020617" stroke-linecap="round" stroke-linejoin="round" d="m48 42 8.1094 -5.4063c0.274 -0.1826 0.4986 -0.4301 0.6539 -0.7204 0.1554 -0.2903 0.2367 -0.6144 0.2367 -0.9437v-1.8592c0 -0.3293 -0.0813 -0.6534 -0.2367 -0.9437 -0.1553 -0.2903 -0.3799 -0.5378 -0.6539 -0.7204l-1.0947 -0.7298c-0.3057 -0.2038 -0.6615 -0.3195 -1.0286 -0.3343 -0.367 -0.0149 -0.731 0.0716 -1.0521 0.25L45 35l3 7Z" stroke-width="1"></path><path id="Vector_23" stroke="#475569" stroke-linecap="round" stroke-linejoin="round" d="m47.549 35.871 6.356 -3.531 1.095 0.73v1.86l-6.109 4.072 -1.342 -3.131Z" stroke-width="1"></path><path id="Vector_24" fill="#ffffff" stroke="#020617" stroke-linecap="round" stroke-linejoin="round" d="M51 35H10c-1.10457 0 -2 0.8954 -2 2v6c0 1.1046 0.89543 2 2 2h41c1.1046 0 2 -0.8954 2 -2v-6c0 -1.1046 -0.8954 -2 -2 -2Z" stroke-width="1"></path><path id="Vector_25" fill="#475569" stroke="#475569" stroke-linecap="round" stroke-linejoin="round" d="M50.5 39h-3c-0.2761 0 -0.5 0.2239 -0.5 0.5v3c0 0.2761 0.2239 0.5 0.5 0.5h3c0.2761 0 0.5 -0.2239 0.5 -0.5v-3c0 -0.2761 -0.2239 -0.5 -0.5 -0.5Z" stroke-width="1"></path><path id="Vector_26" stroke="#020617" stroke-linecap="round" stroke-linejoin="round" d="M53 57v-6l-7 -6 -7 6v6" stroke-width="1"></path><path id="Vector_27" stroke="#020617" stroke-linecap="round" stroke-linejoin="round" d="m46 45 -10 -5 -13 11v6" stroke-width="1"></path><path id="Vector_28" fill="#ffffff" stroke="#020617" stroke-linecap="round" stroke-linejoin="round" d="M57 51h-4c-1.5913 0 -3.1174 0.6321 -4.2426 1.7574C47.6321 53.8826 47 55.4087 47 57c0 1.5913 0.6321 3.1174 1.7574 4.2426C49.8826 62.3679 51.4087 63 53 63h4c1.5913 0 3.1174 -0.6321 4.2426 -1.7574C62.3679 60.1174 63 58.5913 63 57c0 -1.5913 -0.6321 -3.1174 -1.7574 -4.2426C60.1174 51.6321 58.5913 51 57 51Z" stroke-width="1"></path><path id="Vector_29" stroke="#020617" stroke-linecap="round" stroke-linejoin="round" d="M57 63c3.3137 0 6 -2.6863 6 -6s-2.6863 -6 -6 -6 -6 2.6863 -6 6 2.6863 6 6 6Z" stroke-width="1"></path><path id="Vector_30" fill="#ffffff" stroke="#020617" stroke-linecap="round" stroke-linejoin="round" d="M57 60c1.6569 0 3 -1.3431 3 -3s-1.3431 -3 -3 -3 -3 1.3431 -3 3 1.3431 3 3 3Z" stroke-width="1"></path><path id="Vector_31" fill="#cbd5e1" stroke="#020617" stroke-linecap="round" stroke-linejoin="round" d="M46 47c1.1046 0 2 -0.8954 2 -2s-0.8954 -2 -2 -2 -2 0.8954 -2 2 0.8954 2 2 2Z" stroke-width="1"></path><path id="Vector_32" fill="#ffffff" stroke="#ffffff" stroke-linecap="round" stroke-linejoin="round" d="M46 45.25c0.1381 0 0.25 -0.1119 0.25 -0.25s-0.1119 -0.25 -0.25 -0.25 -0.25 0.1119 -0.25 0.25 0.1119 0.25 0.25 0.25Z" stroke-width="1"></path><path id="Vector_33" fill="#cbd5e1" stroke="#020617" stroke-linecap="round" stroke-linejoin="round" d="M36 42c1.1046 0 2 -0.8954 2 -2s-0.8954 -2 -2 -2 -2 0.8954 -2 2 0.8954 2 2 2Z" stroke-width="1"></path><path id="Vector_34" fill="#ffffff" stroke="#ffffff" stroke-linecap="round" stroke-linejoin="round" d="M36 40.25c0.1381 0 0.25 -0.1119 0.25 -0.25s-0.1119 -0.25 -0.25 -0.25 -0.25 0.1119 -0.25 0.25 0.1119 0.25 0.25 0.25Z" stroke-width="1"></path><path id="Vector_35" fill="#020617" stroke="#020617" stroke-linecap="round" stroke-linejoin="round" d="M57 51h-4c-1.5913 0 -3.1174 0.6321 -4.2426 1.7574C47.6321 53.8826 47 55.4087 47 57c0 1.5913 0.6321 3.1174 1.7574 4.2426C49.8826 62.3679 51.4087 63 53 63h4c1.5913 0 3.1174 -0.6321 4.2426 -1.7574C62.3679 60.1174 63 58.5913 63 57c0 -1.5913 -0.6321 -3.1174 -1.7574 -4.2426C60.1174 51.6321 58.5913 51 57 51Z" stroke-width="1"></path><path id="Vector_36" fill="#ffffff" stroke="#020617" stroke-linecap="round" stroke-linejoin="round" d="M57 63c3.3137 0 6 -2.6863 6 -6s-2.6863 -6 -6 -6 -6 2.6863 -6 6 2.6863 6 6 6Z" stroke-width="1"></path><path id="Vector_37" fill="#cbd5e1" stroke="#020617" stroke-linecap="round" stroke-linejoin="round" d="M57 59c1.1046 0 2 -0.8954 2 -2s-0.8954 -2 -2 -2 -2 0.8954 -2 2 0.8954 2 2 2Z" stroke-width="1"></path><path id="Vector_38" fill="#020617" stroke="#020617" stroke-linecap="round" stroke-linejoin="round" d="M43 51h-4c-1.5913 0 -3.1174 0.6321 -4.2426 1.7574C33.6321 53.8826 33 55.4087 33 57c0 1.5913 0.6321 3.1174 1.7574 4.2426C35.8826 62.3679 37.4087 63 39 63h4c1.5913 0 3.1174 -0.6321 4.2426 -1.7574C48.3679 60.1174 49 58.5913 49 57c0 -1.5913 -0.6321 -3.1174 -1.7574 -4.2426C46.1174 51.6321 44.5913 51 43 51Z" stroke-width="1"></path><path id="Vector_39" fill="#ffffff" stroke="#020617" stroke-linecap="round" stroke-linejoin="round" d="M43 63c3.3137 0 6 -2.6863 6 -6s-2.6863 -6 -6 -6 -6 2.6863 -6 6 2.6863 6 6 6Z" stroke-width="1"></path><path id="Vector_40" fill="#cbd5e1" stroke="#020617" stroke-linecap="round" stroke-linejoin="round" d="M43 59c1.1046 0 2 -0.8954 2 -2s-0.8954 -2 -2 -2 -2 0.8954 -2 2 0.8954 2 2 2Z" stroke-width="1"></path><path id="Vector_41" fill="#020617" stroke="#020617" stroke-linecap="round" stroke-linejoin="round" d="M27 51h-4c-1.5913 0 -3.1174 0.6321 -4.2426 1.7574C17.6321 53.8826 17 55.4087 17 57c0 1.5913 0.6321 3.1174 1.7574 4.2426C19.8826 62.3679 21.4087 63 23 63h4c1.5913 0 3.1174 -0.6321 4.2426 -1.7574C32.3679 60.1174 33 58.5913 33 57c0 -1.5913 -0.6321 -3.1174 -1.7574 -4.2426C30.1174 51.6321 28.5913 51 27 51Z" stroke-width="1"></path><path id="Vector_42" fill="#ffffff" stroke="#020617" stroke-linecap="round" stroke-linejoin="round" d="M27 63c3.3137 0 6 -2.6863 6 -6s-2.6863 -6 -6 -6 -6 2.6863 -6 6 2.6863 6 6 6Z" stroke-width="1"></path><path id="Vector_43" fill="#cbd5e1" stroke="#020617" stroke-linecap="round" stroke-linejoin="round" d="M27 59c1.1046 0 2 -0.8954 2 -2s-0.8954 -2 -2 -2 -2 0.8954 -2 2 0.8954 2 2 2Z" stroke-width="1"></path><path id="Vector_44" fill="#ffffff" stroke="#020617" stroke-linecap="round" stroke-linejoin="round" d="M26 35H10c-1.10457 0 -2 0.8954 -2 2v6c0 1.1046 0.89543 2 2 2h16c1.1046 0 2 -0.8954 2 -2v-6c0 -1.1046 -0.8954 -2 -2 -2Z" stroke-width="1"></path><path id="Vector_45" stroke="#020617" stroke-linecap="round" stroke-linejoin="round" d="M54 30V20" stroke-width="1"></path><path id="Vector_46" fill="#cbd5e1" stroke="#020617" stroke-linecap="round" stroke-linejoin="round" d="M10 9v7c0 1.1046 0.8954 2 2 2h17c1.1046 0 2 -0.8954 2 -2V9c0 -1.10457 -0.8954 -2 -2 -2L12 7c-1.1046 0 -2 0.89543 -2 2Z" stroke-width="1"></path><path id="Vector_47" fill="#cbd5e1" stroke="#020617" stroke-linecap="round" stroke-linejoin="round" d="M10 15h21v1c0 0.5304 -0.2107 1.0391 -0.5858 1.4142S29.5304 18 29 18H12c-0.5304 0 -1.0391 -0.2107 -1.4142 -0.5858S10 16.5304 10 16v-1Z" stroke-width="1"></path><path id="Vector_48" fill="#ffffff" stroke="#020617" stroke-linecap="round" stroke-linejoin="round" d="M10 9v7c0 1.1046 0.8954 2 2 2h11c1.1046 0 2 -0.8954 2 -2V9c0 -1.10457 -0.8954 -2 -2 -2H12c-1.1046 0 -2 0.89543 -2 2Z" stroke-width="1"></path><path id="Vector_49" fill="#ffffff" stroke="#020617" stroke-linecap="round" stroke-linejoin="round" d="M10 15h15v1c0 0.5304 -0.2107 1.0391 -0.5858 1.4142S23.5304 18 23 18H12c-0.5304 0 -1.0391 -0.2107 -1.4142 -0.5858S10 16.5304 10 16v-1Z" stroke-width="1"></path><path id="Vector_50" fill="#475569" stroke="#020617" stroke-linecap="round" stroke-linejoin="round" d="M22 11c0 -0.5523 -0.4477 -1 -1 -1s-1 0.4477 -1 1 0.4477 1 1 1 1 -0.4477 1 -1Z" stroke-width="1"></path><path id="Vector_51" fill="#cbd5e1" stroke="#020617" stroke-linecap="round" stroke-linejoin="round" d="M18 25h-2l4 -7h2l-4 7Z" stroke-width="1"></path><path id="Vector_52" fill="#ffffff" stroke="#020617" stroke-linecap="round" stroke-linejoin="round" d="M16 25h-2l4 -7h2l-4 7Z" stroke-width="1"></path><path id="Vector_53" fill="#ffffff" stroke="#020617" stroke-linecap="round" stroke-linejoin="round" d="M17 33h2l-3 -8h-2l3 8Z" stroke-width="1"></path><path id="Vector_54" fill="#cbd5e1" stroke="#020617" stroke-linecap="round" stroke-linejoin="round" d="M19 33h2l-3 -8h-2l3 8Z" stroke-width="1"></path><path id="Vector_55" fill="#ffffff" stroke="#020617" stroke-linecap="round" stroke-linejoin="round" d="M18 23h-3c-0.5304 0 -1.0391 0.2107 -1.4142 0.5858S13 24.4696 13 25c0 0.5304 0.2107 1.0391 0.5858 1.4142S14.4696 27 15 27h3c0.5304 0 1.0391 -0.2107 1.4142 -0.5858S20 25.5304 20 25c0 -0.5304 -0.2107 -1.0391 -0.5858 -1.4142S18.5304 23 18 23Z" stroke-width="1"></path><path id="Vector_56" fill="#cbd5e1" stroke="#020617" stroke-linecap="round" stroke-linejoin="round" d="M18 27c1.1046 0 2 -0.8954 2 -2s-0.8954 -2 -2 -2 -2 0.8954 -2 2 0.8954 2 2 2Z" stroke-width="1"></path><path id="Vector_57" fill="#ffffff" stroke="#020617" stroke-linecap="round" stroke-linejoin="round" d="M20 31h-3c-0.5304 0 -1.0391 0.2107 -1.4142 0.5858S15 32.4696 15 33v2h7v-2c0 -0.5304 -0.2107 -1.0391 -0.5858 -1.4142S20.5304 31 20 31Z" stroke-width="1"></path><path id="Vector_58" fill="#cbd5e1" stroke="#020617" stroke-linecap="round" stroke-linejoin="round" d="M18 35v-2c0 -0.5304 0.2107 -1.0391 0.5858 -1.4142S19.4696 31 20 31c0.5304 0 1.0391 0.2107 1.4142 0.5858S22 32.4696 22 33v2h-4Z" stroke-width="1"></path><path id="Vector_59" fill="#cbd5e1" stroke="#020617" stroke-linecap="round" stroke-linejoin="round" d="M29 33h6c0.2652 0 0.5196 0.1054 0.7071 0.2929S36 33.7348 36 34v1h-8v-1c0 -0.2652 0.1054 -0.5196 0.2929 -0.7071S28.7348 33 29 33Z" stroke-width="1"></path><path id="Vector_60" fill="#ffffff" stroke="#020617" stroke-linecap="round" stroke-linejoin="round" d="M27 33h4c0.2652 0 0.5196 0.1054 0.7071 0.2929S32 33.7348 32 34v1h-6v-1c0 -0.2652 0.1054 -0.5196 0.2929 -0.7071S26.7348 33 27 33Z" stroke-width="1"></path><path id="Vector_61" stroke="#020617" stroke-linecap="round" stroke-linejoin="round" d="M25 38h-6c-0.5304 0 -1.0391 0.2107 -1.4142 0.5858S17 39.4696 17 40c0 0.5304 0.2107 1.0391 0.5858 1.4142S18.4696 42 19 42h6v-4Z" stroke-width="1"></path><path id="Vector_62" fill="#cbd5e1" stroke="#020617" stroke-linecap="round" stroke-linejoin="round" d="M22 39v2l-7 -3v-2l7 3Z" stroke-width="1"></path><path id="Vector_63" fill="#ffffff" stroke="#020617" stroke-linecap="round" stroke-linejoin="round" d="M15 38h-4l7 3h4l-7 -3Z" stroke-width="1"></path><path id="Vector_64" fill="#cbd5e1" stroke="#020617" stroke-linecap="round" stroke-linejoin="round" d="M25 42h-3c-0.5304 0 -1.0391 -0.2107 -1.4142 -0.5858S20 40.5304 20 40c0 -0.5304 0.2107 -1.0391 0.5858 -1.4142S21.4696 38 22 38h3v4Z" stroke-width="1"></path><path id="Vector_65" fill="#ffffff" stroke="#020617" stroke-linecap="round" stroke-linejoin="round" d="M9 47h2l3 -10h-2L9 47Z" stroke-width="1"></path><path id="Vector_66" fill="#cbd5e1" stroke="#020617" stroke-linecap="round" stroke-linejoin="round" d="M11 47h2l3 -10h-2l-3 10Z" stroke-width="1"></path><path id="Vector_67" fill="#ffffff" stroke="#020617" stroke-linecap="round" stroke-linejoin="round" d="M15 35h-3c-0.5304 0 -1.0391 0.2107 -1.4142 0.5858S10 36.4696 10 37c0 0.5304 0.2107 1.0391 0.5858 1.4142S11.4696 39 12 39h3c0.5304 0 1.0391 -0.2107 1.4142 -0.5858S17 37.5304 17 37c0 -0.5304 -0.2107 -1.0391 -0.5858 -1.4142S15.5304 35 15 35Z" stroke-width="1"></path><path id="Vector_68" fill="#cbd5e1" stroke="#020617" stroke-linecap="round" stroke-linejoin="round" d="M15 39c1.1046 0 2 -0.8954 2 -2s-0.8954 -2 -2 -2 -2 0.8954 -2 2 0.8954 2 2 2Z" stroke-width="1"></path><path id="Vector_69" fill="#cbd5e1" stroke="#020617" stroke-linecap="round" stroke-linejoin="round" d="M18 49H4c-0.55228 0 -1 0.4477 -1 1v2c0 0.5523 0.44772 1 1 1h14c0.5523 0 1 -0.4477 1 -1v-2c0 -0.5523 -0.4477 -1 -1 -1Z" stroke-width="1"></path><path id="Vector_70" fill="#ffffff" stroke="#020617" stroke-linecap="round" stroke-linejoin="round" d="M4 53h8c0.5523 0 1 -0.4477 1 -1v-2c0 -0.5523 -0.4477 -1 -1 -1H4c-0.55229 0 -1 0.4477 -1 1v2c0 0.5523 0.44771 1 1 1Z" stroke-width="1"></path><path id="Vector_71" stroke="#020617" stroke-linecap="round" stroke-linejoin="round" d="M11.25 51h-1" stroke-width="1"></path><path id="Vector_72" stroke="#020617" stroke-linecap="round" stroke-linejoin="round" d="M4.75 51h1" stroke-width="1"></path><path id="Vector_73" fill="#ffffff" stroke="#020617" stroke-linecap="round" stroke-linejoin="round" d="M8 51.25c0.13807 0 0.25 -0.1119 0.25 -0.25s-0.11193 -0.25 -0.25 -0.25 -0.25 0.1119 -0.25 0.25 0.11193 0.25 0.25 0.25Z" stroke-width="1"></path><path id="Vector_74" fill="#ffffff" stroke="#020617" stroke-linecap="round" stroke-linejoin="round" d="M12.5 45h-3c-0.53043 0 -1.03914 0.2107 -1.41421 0.5858C7.71071 45.9609 7.5 46.4696 7.5 47v2h7v-2c0 -0.5304 -0.2107 -1.0391 -0.5858 -1.4142S13.0304 45 12.5 45Z" stroke-width="1"></path><path id="Vector_75" fill="#cbd5e1" stroke="#020617" stroke-linecap="round" stroke-linejoin="round" d="M10.5 49v-2c0 -0.5304 0.2107 -1.0391 0.5858 -1.4142S11.9696 45 12.5 45c0.5304 0 1.0391 0.2107 1.4142 0.5858S14.5 46.4696 14.5 47v2h-4Z" stroke-width="1"></path><path id="Vector_76" fill="#475569" stroke="#475569" stroke-linecap="round" stroke-linejoin="round" d="M3 23c1.10457 0 2 -0.8954 2 -2s-0.89543 -2 -2 -2 -2 0.8954 -2 2 0.89543 2 2 2Z" stroke-width="1"></path><path id="Vector_77" fill="#475569" stroke="#475569" stroke-linecap="round" stroke-linejoin="round" d="M56 16c1.1046 0 2 -0.8954 2 -2s-0.8954 -2 -2 -2 -2 0.8954 -2 2 0.8954 2 2 2Z" stroke-width="1"></path><path id="Vector_78" fill="#475569" stroke="#475569" stroke-linecap="round" stroke-linejoin="round" d="M38.125 16.2501c0.069 0 0.125 -0.056 0.125 -0.125 0 -0.0691 -0.056 -0.125 -0.125 -0.125s-0.125 0.0559 -0.125 0.125c0 0.069 0.056 0.125 0.125 0.125Z" stroke-width="1"></path><path id="Vector_79" fill="#475569" stroke="#475569" stroke-linecap="round" stroke-linejoin="round" d="M47.125 23.125c0.069 0 0.125 -0.056 0.125 -0.125s-0.056 -0.125 -0.125 -0.125S47 22.931 47 23s0.056 0.125 0.125 0.125Z" stroke-width="1"></path><path id="Vector_80" fill="#475569" stroke="#475569" stroke-linecap="round" stroke-linejoin="round" d="M8 29c0.06904 0 0.125 -0.056 0.125 -0.125S8.06904 28.75 8 28.75c-0.06904 0 -0.125 0.056 -0.125 0.125S7.93096 29 8 29Z" stroke-width="1"></path><path id="Vector_81" fill="#475569" stroke="#475569" stroke-linecap="round" stroke-linejoin="round" d="M59.125 25.125c0.069 0 0.125 -0.056 0.125 -0.125s-0.056 -0.125 -0.125 -0.125S59 24.931 59 25s0.056 0.125 0.125 0.125Z" stroke-width="1"></path><path id="Vector_82" fill="#475569" stroke="#475569" stroke-linecap="round" stroke-linejoin="round" d="M23.875 2.0625c0.069 0 0.125 -0.05596 0.125 -0.125 0 -0.06904 -0.056 -0.125 -0.125 -0.125s-0.125 0.05596 -0.125 0.125c0 0.06904 0.056 0.125 0.125 0.125Z" stroke-width="1"></path><path id="Vector_83" fill="#475569" stroke="#475569" stroke-linecap="round" stroke-linejoin="round" d="M56.0625 4.0625c0 0.01236 -0.0037 0.02445 -0.0106 0.03473 -0.0068 0.01027 -0.0166 0.01828 -0.028 0.02301 -0.0114 0.00473 -0.024 0.00597 -0.0361 0.00356 -0.0121 -0.00242 -0.0233 -0.00837 -0.032 -0.01711 -0.0088 -0.00875 -0.0147 -0.01988 -0.0171 -0.03201 -0.0024 -0.01212 -0.0012 -0.02469 0.0035 -0.03611 0.0048 -0.01142 0.0128 -0.02118 0.0231 -0.02805C55.9756 4.00366 55.9876 4 56 4c0.0082 0 0.0163 0.00162 0.0239 0.00476 0.0076 0.00314 0.0145 0.00774 0.0203 0.01355 0.0058 0.0058 0.0104 0.01269 0.0135 0.02027 0.0032 0.00759 0.0048 0.01571 0.0048 0.02392v0Z" stroke-width="1"></path><path id="Vector_84" fill="#475569" stroke="#475569" stroke-linecap="round" stroke-linejoin="round" d="M6.125 3.9375c0 0.01236 -0.00367 0.02445 -0.01053 0.03473 -0.00687 0.01027 -0.01664 0.01828 -0.02806 0.02301 -0.01142 0.00473 -0.02399 0.00597 -0.03611 0.00356 -0.01212 -0.00242 -0.02326 -0.00837 -0.032 -0.01711 -0.00874 -0.00875 -0.01469 -0.01988 -0.0171 -0.03201 -0.00241 -0.01212 -0.00117 -0.02469 0.00356 -0.03611 0.00474 -0.01142 0.01275 -0.02118 0.02303 -0.02805 0.01028 -0.00686 0.02237 -0.01052 0.03473 -0.01052 0.00821 0 0.01633 0.00162 0.02392 0.00476 0.00758 0.00314 0.01447 0.00774 0.02027 0.01355 0.0058 0.0058 0.0104 0.01269 0.01354 0.02027 0.00314 0.00759 0.00475 0.01571 0.00475 0.02392v0Z" stroke-width="1"></path><path id="Vector_85" fill="#475569" stroke="#475569" stroke-linecap="round" stroke-linejoin="round" d="M27.5 26c0.2761 0 0.5 -0.2239 0.5 -0.5s-0.2239 -0.5 -0.5 -0.5 -0.5 0.2239 -0.5 0.5 0.2239 0.5 0.5 0.5Z" stroke-width="1"></path><path id="Vector_86" fill="#475569" stroke="#475569" stroke-linecap="round" stroke-linejoin="round" d="M44.5 12.0001c3.0376 0 5.5 -2.46247 5.5 -5.50004s-2.4624 -5.5 -5.5 -5.5 -5.5 2.46243 -5.5 5.5 2.4624 5.50004 5.5 5.50004Z" stroke-width="1"></path></g></g></svg>