<svg xmlns="http://www.w3.org/2000/svg" fill="none" viewBox="0 0 64 64" id="Rocket-Orbiting-Earth--Streamline-Porto.svg" height="64" width="64"><desc>Rocket Orbiting Earth Streamline Illustration: https://streamlinehq.com</desc><g id="Rocket orbiting earth"><g id="Rocket orbiting earth_2"><path id="Vector" fill="#ffffff" stroke="#020617" stroke-linecap="round" stroke-linejoin="round" d="M39 49c13.255 0 24 -10.745 24 -24S52.255 1 39 1 15 11.745 15 25s10.745 24 24 24Z" stroke-width="1"></path><path id="Vector_2" fill="#475569" stroke="#475569" stroke-linecap="round" stroke-linejoin="round" d="M60.86 42.32a0.125 0.125 0 1 0 0 -0.25 0.125 0.125 0 0 0 0 0.25Z" stroke-width="1"></path><path id="Vector_3" fill="#cbd5e1" stroke="#cbd5e1" stroke-linecap="round" stroke-linejoin="round" d="M42 48a24 24 0 0 1 -9.044 -46.231A24.003 24.003 0 1 0 48.044 47.23c-1.974 0.512 -4.005 0.77 -6.044 0.769Z" stroke-width="1"></path><path id="Vector_4" stroke="#020617" stroke-linecap="round" stroke-linejoin="round" d="M39 49c13.255 0 24 -10.745 24 -24S52.255 1 39 1 15 11.745 15 25s10.745 24 24 24Z" stroke-width="1"></path><path id="Vector_5" fill="#475569" stroke="#475569" stroke-linecap="round" stroke-linejoin="round" d="M12 5a2.982 2.982 0 0 1 1.102 -2.306A3.465 3.465 0 0 0 12 2.5a3.5 3.5 0 1 0 2.877 5.488A2.994 2.994 0 0 1 12 5v0Z" stroke-width="1"></path><path id="Vector_6" fill="#475569" stroke="#475569" stroke-linecap="round" stroke-linejoin="round" d="M21.096 62.002a1.5 1.5 0 1 0 0 -3 1.5 1.5 0 0 0 0 3Z" stroke-width="1"></path><path id="Vector_7" fill="#475569" stroke="#475569" stroke-linecap="round" stroke-linejoin="round" d="M7 59a3 3 0 1 0 0 -6 3 3 0 0 0 0 6Z" stroke-width="1"></path><path id="Vector_8" fill="#475569" stroke="#475569" stroke-linecap="round" stroke-linejoin="round" d="M59.5 5a0.5 0.5 0 1 0 0 -1 0.5 0.5 0 0 0 0 1Z" stroke-width="1"></path><path id="Vector_9" fill="#475569" stroke="#475569" stroke-linecap="round" stroke-linejoin="round" d="M5 14.5a0.5 0.5 0 1 0 0 -1 0.5 0.5 0 0 0 0 1Z" stroke-width="1"></path><path id="Vector_10" fill="#475569" stroke="#475569" stroke-linecap="round" stroke-linejoin="round" d="M24 3.125a0.125 0.125 0 1 0 0 -0.25 0.125 0.125 0 0 0 0 0.25Z" stroke-width="1"></path><path id="Vector_11" fill="#475569" stroke="#475569" stroke-linecap="round" stroke-linejoin="round" d="M4.25 45.75a0.25 0.25 0 1 0 0 -0.5 0.25 0.25 0 0 0 0 0.5Z" stroke-width="1"></path><path id="Vector_12" stroke="#020617" stroke-linecap="round" stroke-linejoin="round" d="M58.12 50c-0.65 6.376 -7.177 10.642 -16.21 8.36" stroke-width="1"></path><path id="Vector_13" stroke="#020617" stroke-linecap="round" stroke-linejoin="round" d="M57.77 45.921c0.093 0.354 0.17 0.705 0.23 1.053" stroke-width="1"></path><path id="Vector_14" stroke="#020617" stroke-linecap="round" stroke-linejoin="round" d="M55.5 59.475c-6.667 5.914 -19.47 3.297 -24 0.042" stroke-width="1"></path><path id="Vector_15" stroke="#020617" stroke-linecap="round" stroke-linejoin="round" d="M54 51.849c0.22 -0.428 0.388 -0.881 0.5 -1.349" stroke-width="1"></path><path id="Vector_16" stroke="#020617" stroke-linecap="round" stroke-linejoin="round" d="M40.5 52.5c3 3 9.345 3.47 12.134 1.074" stroke-width="1"></path><path id="Vector_17" fill="#cbd5e1" stroke="#020617" stroke-linecap="round" stroke-linejoin="round" d="M45.04 15.84a2.001 2.001 0 0 1 1.873 -0.47l1.799 0.474a1 1 0 0 0 0.599 -0.028l1.616 -0.591a1 1 0 0 0 0.548 -0.487l1.066 -2.1a1 1 0 0 1 0.745 -0.536l5.412 -0.806A23.987 23.987 0 0 0 32.5 1.898l-3.993 4.868a1.755 1.755 0 0 0 0.113 2.352v0a2 2 0 0 0 0.9 0.521l1.386 0.37a1 1 0 0 1 0.591 0.44l0.633 1.02a0.999 0.999 0 0 1 0.04 0.985l-2.017 3.915a2.997 2.997 0 0 0 0.126 2.965l0.991 1.58a3.997 3.997 0 0 0 2.29 1.718l7.529 2.149a1 1 0 0 1 0.64 0.555l1.179 2.651a1 1 0 0 0 0.265 0.355l1.521 1.296a1 1 0 0 1 0.11 1.413l-3.542 4.124a2.002 2.002 0 0 0 -0.471 1.523l0.185 1.672a2 2 0 0 0 1.178 1.609l0.84 0.371a1 1 0 0 1 0.594 0.954l-0.288 7.304a23.803 23.803 0 0 0 3.41 -0.88l7.94 -9.626a0.999 0.999 0 0 0 0.155 -0.26l2.797 -6.91a2.246 2.246 0 0 0 -0.193 -1.864l-0.54 -0.805a2.001 2.001 0 0 0 -1.985 -0.86l-1.868 0.307c-0.158 0.025 -0.32 0.013 -0.473 -0.037l-5.196 -1.698a1 1 0 0 1 -0.69 -0.951v-2.23a1 1 0 0 0 -0.506 -0.87l-0.791 -0.448a0.998 0.998 0 0 0 -0.908 -0.04l-1.076 0.49a1 1 0 0 1 -1.116 -0.197l-0.233 -0.229a2 2 0 0 1 0.04 -2.888l2.973 -2.771Z" stroke-width="1"></path><path id="Vector_18" fill="#ffffff" stroke="#020617" stroke-linecap="round" stroke-linejoin="round" d="M46.906 47.489a23.983 23.983 0 0 1 -3.499 0.466l-0.107 0.652 0.025 -0.004a23.872 23.872 0 0 0 1.682 -0.37l0.074 -0.02c0.51 -0.133 1.013 -0.285 1.51 -0.45l0.122 -0.04 0.193 -0.234Z" stroke-width="1"></path><path id="Vector_19" fill="#ffffff" stroke="#020617" stroke-linecap="round" stroke-linejoin="round" d="m32.49 1.91 -0.089 0.109c0.157 -0.069 0.31 -0.146 0.469 -0.212 -0.07 0.019 -0.142 0.033 -0.212 0.052 -0.057 0.016 -0.111 0.036 -0.168 0.052Z" stroke-width="1"></path><path id="Vector_20" fill="#475569" stroke="#475569" stroke-linecap="round" stroke-linejoin="round" d="M38.056 56.944h-3.225a3.226 3.226 0 1 1 3.225 -3.226v3.226Z" stroke-width="1"></path><path id="Vector_21" fill="#ffffff" stroke="#ffffff" stroke-linecap="round" stroke-linejoin="round" d="M35.671 54.559h-1a1 1 0 1 1 1 -1v1Z" stroke-width="1"></path><path id="Vector_22" fill="#ffffff" stroke="#020617" stroke-linecap="round" stroke-linejoin="round" d="m25.479 55.68 10.606 -10.607a2 2 0 0 1 0 2.829l-7.778 7.778a2 2 0 0 1 -2.828 0Z" stroke-width="1"></path><path id="Vector_23" fill="#cbd5e1" stroke="#cbd5e1" stroke-linecap="round" stroke-linejoin="round" d="m27.247 53.912 -1.768 1.768a2 2 0 0 0 2.828 0l1.768 -1.768a2 2 0 0 1 -2.828 0v0Z" stroke-width="1"></path><path id="Vector_24" stroke="#020617" stroke-linecap="round" stroke-linejoin="round" d="m25.479 55.68 10.606 -10.607a2 2 0 0 1 0 2.829l-7.778 7.778a2 2 0 0 1 -2.828 0Z" stroke-width="1"></path><path id="Vector_25" fill="#ffffff" stroke="#020617" stroke-linecap="round" stroke-linejoin="round" d="M36.085 45.073 25.479 55.68l-0.707 -2.121 9.192 -9.193 2.121 0.707Z" stroke-width="1"></path><path id="Vector_26" fill="#cbd5e1" stroke="#cbd5e1" stroke-linecap="round" stroke-linejoin="round" d="m24.772 53.559 0.707 2.121 2.121 -2.121 -0.707 -2.122 -2.121 2.122Z" stroke-width="1"></path><path id="Vector_27" stroke="#020617" stroke-linecap="round" stroke-linejoin="round" d="M36.085 45.073 25.479 55.68l-0.707 -2.121 9.192 -9.193 2.121 0.707Z" stroke-width="1"></path><path id="Vector_28" fill="#475569" stroke="#020617" stroke-linecap="round" stroke-linejoin="round" d="m28.875 37.863 7.434 -1.716a1 1 0 0 0 0.482 -1.681l-1.974 -1.975a4 4 0 0 0 -2.387 -1.147l-11.334 -1.26 7.779 7.779Z" stroke-width="1"></path><path id="Vector_29" fill="#ffffff" d="M1.437 20.325C-0.419 26.422 3.85 36.879 10.221 43.25l9.6 9.6a4 4 0 0 0 5.658 0l0.707 -0.706 7.071 -7.072 0.707 -0.707a3.998 3.998 0 0 0 0 -5.657l-9.601 -9.6c-6.371 -6.372 -16.827 -10.64 -22.926 -8.785Z" stroke-width="1"></path><path id="Vector_30" fill="#cbd5e1" stroke="#cbd5e1" stroke-linecap="round" stroke-linejoin="round" d="m21.943 50.73 -9.6 -9.6C5.97 34.757 1.436 27.395 1.436 20.323c-1.856 6.1 2.413 16.555 8.784 22.927l9.6 9.6a4 4 0 0 0 5.658 0l0.707 -0.706 0.99 -0.99c-1.328 1.327 -3.67 1.137 -5.233 -0.425Z" stroke-width="1"></path><path id="Vector_31" stroke="#020617" stroke-linecap="round" stroke-linejoin="round" d="M1.437 20.325C-0.419 26.422 3.85 36.879 10.221 43.25l9.6 9.6a4 4 0 0 0 5.658 0l0.707 -0.706 7.071 -7.072 0.707 -0.707a3.997 3.997 0 0 0 0 -5.657l-9.601 -9.6c-6.371 -6.372 -16.827 -10.64 -22.926 -8.785Z" stroke-width="1"></path><path id="Vector_32" fill="#ffffff" stroke="#020617" stroke-linecap="round" stroke-linejoin="round" d="M19.822 52.851 33.964 38.71a4 4 0 0 1 0 5.657l-8.485 8.485a4 4 0 0 1 -5.657 0v0Z" stroke-width="1"></path><path id="Vector_33" fill="#cbd5e1" stroke="#cbd5e1" stroke-linecap="round" stroke-linejoin="round" d="m21.943 50.73 -2.121 2.121a4 4 0 0 0 5.657 0l2.121 -2.12a4 4 0 0 1 -5.657 -0.001h0Z" stroke-width="1"></path><path id="Vector_34" stroke="#020617" stroke-linecap="round" stroke-linejoin="round" d="M19.822 52.851 33.964 38.71a4 4 0 0 1 0 5.657l-8.485 8.485a4 4 0 0 1 -5.657 0v0Z" stroke-width="1"></path><path id="Vector_35" fill="#ffffff" stroke="#020617" stroke-linecap="round" stroke-linejoin="round" d="m1.71 28.536 7.939 -7.938a15.492 15.492 0 0 0 -8.212 -0.273 15.491 15.491 0 0 0 0.274 8.211v0Z" stroke-width="1"></path><path id="Vector_36" fill="#cbd5e1" stroke="#cbd5e1" stroke-linecap="round" stroke-linejoin="round" d="m1.71 28.533 0 0.003 1.132 -1.131a19.949 19.949 0 0 1 -1.405 -7.08 15.871 15.871 0 0 0 0.273 8.208Z" stroke-width="1"></path><path id="Vector_37" stroke="#020617" stroke-linecap="round" stroke-linejoin="round" d="m1.71 28.536 7.939 -7.938a15.492 15.492 0 0 0 -8.212 -0.273 15.491 15.491 0 0 0 0.274 8.211Z" stroke-width="1"></path><path id="Vector_38" fill="#475569" stroke="#020617" stroke-linecap="round" stroke-linejoin="round" d="M19.822 39.674a4.5 4.5 0 1 0 0 -9 4.5 4.5 0 0 0 0 9Z" stroke-width="1"></path><path id="Vector_39" fill="#475569" stroke="#020617" stroke-linecap="round" stroke-linejoin="round" d="M12.397 29.75a2 2 0 1 0 0 -4 2 2 0 0 0 0 4Z" stroke-width="1"></path><path id="Vector_40" stroke="#ffffff" stroke-linecap="round" stroke-linejoin="round" d="M18.054 33.406a2.5 2.5 0 0 1 3.536 0" stroke-width="1"></path><path id="Vector_41" fill="#475569" stroke="#020617" stroke-linecap="round" stroke-linejoin="round" d="m18.975 47.762 -1.715 7.434a1 1 0 0 1 -1.682 0.483l-1.975 -1.975a4 4 0 0 1 -1.147 -2.387l-1.259 -11.333 7.778 7.778Z" stroke-width="1"></path></g></g></svg>