<svg width="200" height="200" viewBox="0 0 200 200" fill="none" xmlns="http://www.w3.org/2000/svg">
<rect width="200" height="200" rx="100" fill="white"/>
<path d="M49.3436 136.703L44.2045 133.734L101.462 34.5694L106.597 37.5367L49.3436 136.703Z" fill="#E535AB"/>
<path d="M43.0247 125.813H157.534V131.746H43.0247V125.813Z" fill="#E535AB"/>
<path d="M102.569 162.215L45.2949 129.148L48.2622 124.007L105.537 157.078L102.569 162.215ZM152.324 76.028L95.0499 42.9563L98.0173 37.8205L155.292 70.8866L152.324 76.028Z" fill="#E535AB"/>
<path d="M48.2756 76.0056L45.3071 70.8653L102.587 37.7981L105.554 42.935L48.2756 76.0056Z" fill="#E535AB"/>
<path d="M151.268 136.703L94.0152 37.5367L99.1521 34.5694L156.409 133.734L151.268 136.703ZM47.5671 66.9283H53.5029V133.072H47.5683L47.5671 66.9283Z" fill="#E535AB"/>
<path d="M147.096 66.9283H153.031V133.072H147.096V66.9283Z" fill="#E535AB"/>
<path d="M101.561 159.705L98.969 155.214L148.781 126.451L151.373 130.942L101.561 159.705Z" fill="#E535AB"/>
<path d="M160.895 135C157.465 140.97 149.814 143.008 143.845 139.578C137.875 136.144 135.837 128.493 139.267 122.523C142.701 116.553 150.352 114.515 156.322 117.946C162.327 121.415 164.365 129.03 160.895 135ZM61.2978 77.477C57.8635 83.4474 50.2128 85.4852 44.2424 82.0542C38.2721 78.6199 36.2343 70.9704 39.6652 65C43.0995 59.0296 50.7491 56.9918 56.7195 60.4217C62.6898 63.8917 64.7276 71.5066 61.2978 77.477ZM39.7043 135C36.2689 129.03 38.3078 121.415 44.2771 117.945C50.2475 114.515 57.8624 116.553 61.3324 122.523C64.7623 128.493 62.7245 136.108 56.7541 139.578C50.7491 143.008 43.1342 140.97 39.7043 135ZM139.301 77.477C135.872 71.5066 137.909 63.8917 143.88 60.4217C149.85 56.9918 157.465 59.0296 160.934 65C164.364 70.9704 162.327 78.5853 156.357 82.0554C150.386 85.4852 142.736 83.4474 139.301 77.477ZM100.3 170C98.6607 170.001 97.0376 169.68 95.5232 169.053C94.0087 168.427 92.6327 167.508 91.4738 166.349C90.3149 165.19 89.3959 163.814 88.7694 162.299C88.1429 160.785 87.8212 159.162 87.8226 157.523C87.8212 155.884 88.1429 154.261 88.7694 152.747C89.3959 151.232 90.3149 149.856 91.4738 148.697C92.6327 147.538 94.0087 146.619 95.5232 145.993C97.0376 145.366 98.6607 145.045 100.3 145.046C101.939 145.045 103.562 145.366 105.076 145.993C106.591 146.619 107.967 147.538 109.126 148.697C110.284 149.856 111.203 151.232 111.83 152.747C112.456 154.261 112.778 155.884 112.777 157.523C112.777 164.388 107.2 170 100.3 170ZM100.3 54.954C98.6607 54.9555 97.0376 54.6338 95.5232 54.0073C94.0087 53.3808 92.6327 52.4618 91.4738 51.3029C90.3149 50.144 89.3959 48.768 88.7694 47.2535C88.1429 45.7391 87.8212 44.1159 87.8226 42.477C87.8212 40.8381 88.1429 39.215 88.7694 37.7005C89.3959 36.1861 90.3149 34.8101 91.4738 33.6512C92.6327 32.4923 94.0087 31.5733 95.5232 30.9468C97.0376 30.3203 98.6607 29.9985 100.3 30C101.939 29.9985 103.562 30.3203 105.076 30.9468C106.591 31.5733 107.967 32.4923 109.126 33.6512C110.284 34.8101 111.203 36.1861 111.83 37.7005C112.456 39.215 112.778 40.8381 112.777 42.477C112.778 44.1159 112.456 45.7391 111.83 47.2535C111.203 48.768 110.284 50.144 109.126 51.3029C107.967 52.4618 106.591 53.3808 105.076 54.0073C103.562 54.6338 101.939 54.9555 100.3 54.954Z" fill="#E535AB"/>
</svg>
