<svg width="200" height="200" viewBox="0 0 200 200" fill="none" xmlns="http://www.w3.org/2000/svg">
<rect width="200" height="200" rx="100" fill="white"/>
<path d="M156.371 98.9817C156.371 91.7697 150.906 85.7006 143.57 83.9688L160 40H78.5787L95.0458 84.1076C87.9406 85.979 82.7032 91.9422 82.7032 99.0183C82.7032 104.218 85.5704 108.829 89.9255 111.672C88.2078 113.891 86.2192 115.938 83.9661 117.879C79.7254 121.487 75.0224 124.259 69.9424 126.098C65.3576 123.289 63.3717 118.33 65.1663 113.891C72.158 111.95 77.2426 106.02 77.2426 99.0511C77.2426 90.488 69.5618 83.5507 60.1595 83.5507C50.7216 83.5507 43.0455 90.5208 43.0455 99.0867C43.0455 103.318 44.9535 107.2 48.0119 109.972C47.7438 110.46 47.4775 110.943 47.2093 111.463C44.6497 116.25 41.745 121.659 40.6349 127.729C38.4193 139.862 42.0488 149.608 50.7985 155.121C55.7284 158.208 61.1562 159.768 67.0021 159.768C77.0476 159.768 87.2515 155.19 97.1076 150.75C104.14 147.597 111.398 144.301 118.544 142.708C121.181 142.118 123.931 141.77 126.836 141.389C132.718 140.627 138.794 139.829 144.259 136.951C150.639 133.589 154.994 127.97 156.257 121.521C157.209 116.561 156.257 111.569 153.81 107.2C155.482 104.786 156.376 101.918 156.371 98.9817ZM148.921 98.9817C148.921 103.801 144.603 107.72 139.292 107.72C133.982 107.72 129.663 103.801 129.663 98.9817C129.663 97.4206 130.121 95.9307 130.923 94.6481C131.228 94.1606 131.612 93.6777 131.992 93.2605C132.394 92.8314 132.843 92.4481 133.33 92.1175L133.37 92.081C133.674 91.8728 134.018 91.6637 134.362 91.4584C134.362 91.4584 134.4 91.4584 134.4 91.4218C134.553 91.3524 134.706 91.2493 134.861 91.1799C134.898 91.1799 134.934 91.1434 134.974 91.1434C135.128 91.0777 135.319 91.0083 135.508 90.938C135.689 90.8749 135.867 90.8055 136.043 90.7299C136.081 90.7299 136.12 90.6924 136.157 90.6924C136.311 90.6605 136.464 90.5902 136.615 90.5574C136.656 90.5574 136.732 90.5208 136.769 90.5208C136.959 90.488 137.113 90.4514 137.303 90.4177H137.344L137.916 90.3117C137.955 90.3117 138.028 90.3117 138.069 90.2789C138.222 90.2789 138.373 90.2423 138.527 90.2423H138.717C138.908 90.2423 139.102 90.2095 139.329 90.2095H139.827C139.977 90.2095 140.095 90.2095 140.245 90.2423H140.322C140.629 90.2798 140.933 90.3117 141.24 90.382C145.596 91.2127 148.921 94.7512 148.921 98.9817ZM89.2364 46.9336H149.339L135.545 83.8629C134.974 83.9688 134.399 84.1404 133.828 84.3129L119.31 57.4413L104.751 84.1395C104.176 83.9679 103.565 83.8619 102.956 83.7588L89.2364 46.9336ZM116.555 95.9626C115.831 92.7026 113.996 89.7913 111.398 87.6414L119.31 73.1489L127.294 87.9527C124.924 90.1026 123.206 92.8423 122.518 95.9626H116.555ZM97.4151 90.487C97.6054 90.4495 97.7592 90.4177 97.9495 90.3811H98.063C98.2167 90.3483 98.3714 90.3483 98.5215 90.3108H98.6752C98.829 90.3108 98.9424 90.278 99.0962 90.278H100.587C100.737 90.278 100.854 90.3108 100.968 90.3108C101.045 90.3108 101.081 90.3108 101.158 90.3483C101.312 90.3811 101.425 90.3811 101.58 90.4177C101.616 90.4177 101.656 90.4177 101.733 90.4505C101.924 90.487 102.114 90.5199 102.267 90.5564H102.305C102.458 90.5892 102.612 90.6221 102.762 90.6924C102.803 90.6924 102.839 90.7289 102.916 90.7289C103.029 90.7618 103.183 90.7983 103.297 90.8677C103.337 90.8677 103.374 90.9005 103.414 90.9005C103.564 90.9708 103.719 91.0074 103.872 91.0768H103.909C104.099 91.1424 104.253 91.2118 104.407 91.3187H104.444C104.597 91.3881 104.751 91.4903 104.905 91.5597C104.942 91.5597 104.942 91.5972 104.978 91.5972C105.132 91.6628 105.246 91.7687 105.4 91.8381L105.44 91.8709C105.898 92.1832 106.319 92.531 106.736 92.8789L106.776 92.9117C107.158 93.2923 107.538 93.7096 107.846 94.1606C108.839 95.5482 109.414 97.1787 109.414 98.947C109.414 103.767 105.095 107.683 99.7844 107.683C94.4738 107.683 90.1552 103.767 90.1552 98.947C90.1159 94.8891 93.2109 91.4575 97.4151 90.487ZM59.8154 90.2414C65.1269 90.2414 69.4446 94.1606 69.4446 98.9798C69.4446 103.8 65.1269 107.718 59.8154 107.718C54.5048 107.718 50.1862 103.8 50.1862 98.9798C50.1862 94.1606 54.5048 90.2414 59.8154 90.2414ZM148.691 120.307C147.852 124.742 144.83 128.629 140.399 130.95C136.234 133.137 131.113 133.829 125.726 134.521C122.786 134.902 119.691 135.319 116.709 135.979C108.762 137.748 101.121 141.216 93.7088 144.542C84.2334 148.809 75.2896 152.83 67.0021 152.83C62.6835 152.83 58.8234 151.721 55.1574 149.398C46.7518 144.128 47.169 134.247 48.1657 128.837C49.0808 123.772 51.6414 119.022 54.0876 114.48C54.2376 114.202 54.3548 113.96 54.5048 113.681C55.3477 113.96 56.2263 114.169 57.1423 114.308C55.6918 121.659 59.8154 129.251 67.8403 132.998L69.2936 133.69L70.8585 133.169C77.5464 131.02 83.7355 127.519 89.1998 122.837C92.2949 120.201 94.9323 117.359 97.1479 114.271C98.0264 114.411 98.9059 114.447 99.7844 114.447C107.732 114.447 114.417 109.488 116.328 102.83H122.745C124.657 109.521 131.344 114.447 139.292 114.447C142.464 114.447 145.405 113.65 147.925 112.298C148.921 114.897 149.225 117.601 148.691 120.307Z" fill="#15C213"/>
</svg>
