<svg width="200" height="200" viewBox="0 0 200 200" fill="none" xmlns="http://www.w3.org/2000/svg">
<rect width="200" height="200" rx="100" fill="white"/>
<path d="M110.885 35C109.965 35 109.111 35.2022 108.323 35.4718C109.998 36.6178 110.918 38.1345 111.378 39.8535C111.411 40.0894 111.476 40.258 111.509 40.4939C111.542 40.6961 111.575 40.8983 111.575 41.1006C111.706 44.0666 110.819 44.4374 110.195 46.19C109.243 48.4483 109.506 50.875 110.655 52.8299C110.754 53.0658 110.885 53.3354 111.049 53.5714C109.801 45.044 116.731 43.7632 118.012 41.1006C118.11 38.775 116.238 37.2245 114.76 36.146C113.348 35.2696 112.067 35 110.885 35ZM121.33 36.9212C121.198 37.6964 121.297 37.4942 121.264 37.8986C121.231 38.1683 121.231 38.5053 121.198 38.775C121.132 39.0446 121.067 39.3142 120.968 39.5839C120.902 39.8535 120.804 40.1231 120.706 40.3928C120.574 40.6624 120.476 40.8983 120.344 41.168C120.246 41.3029 120.18 41.4376 120.082 41.5724C120.016 41.6736 119.95 41.7747 119.884 41.8758C119.72 42.1118 119.556 42.3477 119.391 42.5499C119.195 42.7521 119.03 42.988 118.801 43.1566C118.801 43.1904 118.801 43.1904 118.801 43.1904C118.603 43.3589 118.406 43.5611 118.177 43.7296C117.487 44.2689 116.699 44.6734 115.976 45.1789C115.746 45.3474 115.516 45.4823 115.319 45.6845C115.089 45.853 114.892 46.0215 114.695 46.2238C114.465 46.426 114.301 46.6282 114.104 46.8642C113.94 47.0664 113.742 47.3023 113.611 47.5383C113.447 47.7742 113.283 48.0101 113.151 48.2461C113.02 48.5157 112.922 48.7516 112.79 49.0213C112.692 49.2909 112.593 49.5268 112.527 49.7965C112.429 50.0998 112.363 50.3695 112.298 50.6391C112.264 50.774 112.264 50.9424 112.231 51.0773C112.199 51.2121 112.199 51.3469 112.166 51.4818C112.166 51.7514 112.133 52.0547 112.133 52.3243C112.133 52.5266 112.133 52.7288 112.166 52.931C112.166 53.2006 112.199 53.4703 112.264 53.7737C112.298 54.0433 112.363 54.3129 112.429 54.5826C112.527 54.8522 112.593 55.1219 112.692 55.3915C112.757 55.56 112.856 55.7286 112.922 55.8633L105.367 52.8636C104.086 52.4929 102.838 52.1558 101.557 51.8525C100.868 51.684 100.178 51.5154 99.4879 51.3469C97.5172 50.9424 95.514 50.6391 93.5102 50.4369C93.4446 50.4369 93.4121 50.4031 93.346 50.4031C91.3753 50.2009 89.4377 50.0998 87.467 50.0998C86.0216 50.0998 84.5769 50.1672 83.1645 50.2683C81.1609 50.4032 79.1575 50.6727 77.1539 51.0098C76.6613 51.0772 76.1686 51.1783 75.6759 51.2795C74.6577 51.4817 73.6724 51.7176 72.7199 51.9535C72.2273 52.0884 71.7346 52.2232 71.2419 52.358C70.7493 52.5602 70.2894 52.7962 69.8296 52.9984C69.4683 53.1669 69.107 53.3354 68.7458 53.504C68.6801 53.5377 68.6143 53.5377 68.5815 53.5713C68.2531 53.7399 67.9575 53.8746 67.6619 54.0432C67.5634 54.077 67.4977 54.1105 67.432 54.1443C67.0707 54.3129 66.7094 54.5151 66.4139 54.6836C66.1839 54.7847 65.954 54.9195 65.7569 55.0206C65.6584 55.088 65.527 55.1555 65.4614 55.1892C65.1657 55.3577 64.8702 55.5262 64.6074 55.6948C64.3118 55.8633 64.049 56.0318 63.8191 56.2003C63.5892 56.3689 63.3593 56.5037 63.1623 56.6722C63.1293 56.7059 63.0966 56.7059 63.0637 56.7395C62.8666 56.8744 62.6367 57.0429 62.4396 57.2114C62.4396 57.2114 62.4068 57.2451 62.374 57.2787C62.2098 57.4137 62.0456 57.5484 61.8813 57.6832C61.8157 57.717 61.7499 57.7843 61.6843 57.8181C61.5201 57.953 61.3558 58.1214 61.1916 58.2562C61.1587 58.3236 61.0931 58.3574 61.0602 58.3911C60.8631 58.5933 60.6661 58.7619 60.469 58.9641C60.4361 58.9641 60.4361 58.9979 60.4034 59.0314C60.2063 59.2 60.0092 59.4022 59.8122 59.6044C59.7792 59.6382 59.7792 59.6718 59.7465 59.6718C59.5823 59.8403 59.4181 60.0089 59.2539 60.2111C59.1882 60.2784 59.0897 60.346 59.0239 60.4133C58.8597 60.6156 58.6627 60.8178 58.4656 61.02C58.4327 61.0873 58.3671 61.1211 58.3342 61.1885C58.0714 61.4582 57.8415 61.7278 57.5788 61.9975C57.5458 62.0312 57.5131 62.0648 57.4802 62.0986C56.9547 62.6716 56.3963 63.2445 55.8051 63.7501C55.2139 64.2894 54.5899 64.7949 53.9659 65.2331C53.309 65.705 52.6849 66.1094 51.9952 66.5139C51.3383 66.8846 50.6486 67.2217 49.926 67.5251C49.2362 67.8284 48.5137 68.0981 47.7911 68.3339C46.4116 68.6373 44.9994 69.2103 43.7841 69.3114C43.5213 69.3114 43.2258 69.3787 42.963 69.4125C42.6674 69.4798 42.4046 69.5474 42.1419 69.6147C41.8791 69.7158 41.6164 69.817 41.3536 69.9181C41.0909 70.0192 40.8281 70.154 40.5654 70.2889C40.3354 70.4574 40.0727 70.5922 39.8428 70.7607C39.6129 70.9292 39.383 71.1314 39.1859 71.3337C38.956 71.5022 38.7261 71.7382 38.529 71.9404C38.332 72.1763 38.1349 72.3785 37.9707 72.6145C37.8065 72.8841 37.6094 73.1201 37.478 73.3897C37.3138 73.6257 37.1496 73.8952 37.0182 74.1649C36.8867 74.4682 36.7554 74.7379 36.6569 75.0412C36.5584 75.3109 36.4598 75.6142 36.3613 75.9176C36.2956 76.1872 36.2299 76.4568 36.1971 76.7265C36.1971 76.7603 36.1642 76.7938 36.1642 76.8276C36.0985 77.1309 36.0985 77.5354 36.0656 77.7376C36.0327 77.9736 36 78.1758 36 78.4117C36 78.5466 36 78.715 36.0329 78.8499C36.0658 79.0858 36.0985 79.288 36.1643 79.4903C36.23 79.6925 36.2958 79.8947 36.3942 80.097C36.3942 80.1307 36.3942 80.1307 36.3942 80.1307C36.4928 80.3329 36.6241 80.5352 36.7555 80.7374C36.887 80.9396 37.0183 81.1418 37.1825 81.3441C37.3467 81.5126 37.5438 81.7148 37.7409 81.8834C37.9379 82.0856 38.135 82.2541 38.3649 82.4226C39.1531 83.1304 39.3502 83.3664 40.3684 83.9054C40.5326 84.007 40.6968 84.0744 40.8939 84.1755C40.9268 84.1755 40.9596 84.2091 40.9925 84.2091C40.9925 84.2765 40.9925 84.3102 41.0253 84.3775C41.0582 84.647 41.1239 84.917 41.1895 85.1865C41.2552 85.4896 41.3538 85.7597 41.4523 85.9955C41.5509 86.1975 41.6165 86.3996 41.7151 86.6023C41.748 86.6697 41.7807 86.737 41.8136 86.7707C41.9451 87.0402 42.0764 87.276 42.2077 87.5123C42.3719 87.7481 42.5362 87.9839 42.7004 88.2202C42.8646 88.4223 43.0617 88.6581 43.2588 88.8602C43.4559 89.0629 43.6529 89.2313 43.8828 89.4334C43.8828 89.4334 43.9157 89.467 43.9484 89.467C44.1455 89.6355 44.3426 89.8045 44.5396 89.9392C44.7696 90.1076 44.9995 90.2423 45.2622 90.377C45.4921 90.5118 45.7549 90.6465 46.0176 90.7481C46.2147 90.8492 46.4446 90.9165 46.6745 90.9839C46.7075 91.0176 46.7402 91.0176 46.806 91.0513C46.9374 91.085 47.1015 91.1186 47.2329 91.1523C47.1344 92.9723 47.1015 94.6913 47.3644 95.2981C47.6599 95.9724 49.1051 93.916 50.5502 91.5565C50.3532 93.8823 50.2218 96.6123 50.5502 97.4213C50.9115 98.2639 52.8822 95.635 54.5901 92.7365C77.8768 87.2086 99.1268 103.724 101.36 127.048C100.933 123.408 96.5652 121.386 94.5614 121.891C93.5764 124.385 91.9012 127.587 89.2078 129.576C89.4383 127.351 89.3396 125.059 88.8799 122.835C88.1572 125.936 86.7449 128.835 84.8067 131.328C81.6867 131.565 78.5665 130.014 76.9243 127.688C76.7928 127.587 76.7601 127.385 76.6615 127.25C76.563 127.014 76.4645 126.778 76.3987 126.542C76.3002 126.307 76.2345 126.07 76.2017 125.835C76.1688 125.599 76.1688 125.363 76.1688 125.093C76.1688 124.925 76.1688 124.756 76.1688 124.588C76.2017 124.351 76.2673 124.116 76.333 123.88C76.3986 123.644 76.4644 123.408 76.563 123.172C76.6944 122.936 76.7928 122.7 76.9571 122.464C77.5154 120.846 77.5154 119.532 76.4972 118.757C76.3002 118.622 76.1031 118.521 75.8732 118.42C75.7418 118.386 75.5776 118.318 75.4462 118.284C75.3477 118.251 75.282 118.217 75.1835 118.183C74.9536 118.116 74.7236 118.049 74.4937 118.015C74.2638 117.948 74.0339 117.914 73.804 117.914C73.5741 117.88 73.3114 117.847 73.0814 117.847C72.9172 117.847 72.753 117.88 72.5887 117.88C72.326 117.88 72.0961 117.914 71.8662 117.981C71.6362 118.015 71.4064 118.049 71.1765 118.116C70.9465 118.183 70.7166 118.251 70.4867 118.352C70.2568 118.453 70.0598 118.555 69.8298 118.656C69.6328 118.757 69.4357 118.891 69.2058 118.992C61.553 124.116 66.1184 136.115 71.3407 139.586C69.37 139.957 67.3665 140.395 66.8082 140.834C66.7753 140.867 66.7425 140.901 66.7425 140.901C68.1549 141.777 69.6328 142.519 71.1765 143.159C73.2786 143.867 75.512 144.507 76.4973 144.777V144.81C79.2233 145.384 81.9823 145.586 84.7742 145.417C99.3242 144.373 111.246 133.014 113.414 118.049C113.48 118.352 113.546 118.622 113.611 118.925C113.71 119.532 113.841 120.172 113.907 120.812C113.907 120.812 113.907 120.812 113.907 120.847C113.973 121.15 114.005 121.453 114.038 121.723C114.038 121.79 114.038 121.824 114.038 121.858C114.071 122.161 114.104 122.465 114.104 122.734C114.137 123.105 114.17 123.476 114.17 123.846C114.17 124.015 114.17 124.184 114.17 124.386C114.17 124.554 114.203 124.756 114.203 124.925C114.203 125.127 114.17 125.329 114.17 125.531C114.17 125.7 114.17 125.869 114.17 126.004C114.17 126.239 114.137 126.441 114.137 126.678C114.137 126.812 114.137 126.947 114.104 127.116C114.104 127.351 114.071 127.588 114.071 127.857C114.038 127.958 114.038 128.059 114.038 128.16C114.005 128.43 113.972 128.666 113.94 128.936C113.94 129.037 113.94 129.138 113.907 129.239C113.874 129.576 113.808 129.879 113.775 130.217V130.25V130.284C113.71 130.587 113.644 130.925 113.578 131.228C113.578 131.261 113.578 131.295 113.578 131.329C113.512 131.632 113.447 131.936 113.381 132.239C113.381 132.272 113.348 132.34 113.348 132.374C113.283 132.677 113.217 132.98 113.118 133.284C113.118 133.318 113.118 133.351 113.118 133.385C113.02 133.722 112.921 134.025 112.855 134.329C112.823 134.363 112.823 134.396 112.823 134.396C112.724 134.733 112.626 135.07 112.527 135.407C112.396 135.744 112.297 136.048 112.166 136.385C112.035 136.721 111.936 137.059 111.805 137.362C111.673 137.699 111.542 138.003 111.411 138.339H111.378C111.246 138.643 111.115 138.98 110.95 139.283C110.917 139.384 110.885 139.452 110.852 139.519C110.819 139.553 110.819 139.587 110.786 139.62C108.651 144.036 105.499 147.911 101.557 150.945C101.294 151.114 101.031 151.316 100.769 151.518C100.703 151.585 100.605 151.619 100.539 151.687C100.309 151.855 100.079 152.024 99.8164 152.192L99.9145 152.395H99.9476C100.407 152.327 100.867 152.259 101.327 152.192H101.36C102.214 152.057 103.068 151.889 103.922 151.72C104.152 151.687 104.414 151.619 104.645 151.552C104.808 151.518 104.94 151.485 105.104 151.45C105.334 151.417 105.564 151.349 105.794 151.316C105.991 151.248 106.188 151.215 106.385 151.147C109.67 150.338 112.855 149.226 115.91 147.911C110.688 155.226 103.692 161.124 95.514 165C99.2911 164.731 103.068 164.09 106.714 163.012C119.95 159 131.084 149.866 137.752 137.564C136.405 145.35 133.383 152.765 128.916 159.236C132.102 157.079 135.026 154.585 137.686 151.754C145.043 143.867 149.871 133.857 151.513 123.105C152.63 128.43 152.959 133.924 152.466 139.35C176.18 105.41 154.436 70.2219 145.339 60.9531C145.306 60.8857 145.273 60.852 145.273 60.7846C145.24 60.8183 145.24 60.8183 145.24 60.8519C145.24 60.8182 145.24 60.8182 145.207 60.7846C145.207 61.189 145.174 61.5934 145.141 61.9979C145.043 62.7731 144.945 63.5146 144.813 64.2561C144.649 64.9977 144.452 65.7391 144.255 66.4807C144.025 67.1885 143.762 67.9299 143.466 68.6378C143.171 69.3118 142.842 70.0197 142.481 70.6938C142.12 71.3342 141.725 72.0083 141.299 72.615C140.872 73.2553 140.412 73.862 139.952 74.435C139.459 75.0417 138.934 75.581 138.409 76.1202C138.08 76.4236 137.784 76.6932 137.456 76.9629C137.193 77.1988 136.963 77.401 136.7 77.637C136.109 78.1088 135.518 78.547 134.861 78.9515C134.237 79.3559 133.58 79.7604 132.923 80.0974C132.234 80.4345 131.544 80.7378 130.854 81.0412C130.164 81.3108 129.442 81.5467 128.72 81.749C127.997 81.9512 127.241 82.1197 126.519 82.2545C125.763 82.3894 125.008 82.4568 124.285 82.5242C123.76 82.558 123.234 82.5916 122.709 82.5916C121.954 82.5916 121.198 82.5242 120.475 82.4567C119.72 82.3893 118.965 82.2881 118.242 82.1196C117.486 81.9847 116.764 81.7826 116.042 81.5466H116.008C116.731 81.4793 117.454 81.4118 118.177 81.277C118.932 81.1421 119.654 80.9737 120.377 80.7714C121.099 80.5692 121.822 80.3332 122.511 80.0636C123.234 79.794 123.924 79.4569 124.581 79.1199C125.27 78.7828 125.894 78.4121 126.551 78.0076C127.175 77.5694 127.799 77.1313 128.391 76.6594C128.982 76.1875 129.54 75.682 130.066 75.1427C130.624 74.6371 131.117 74.0642 131.61 73.4912C132.102 72.8845 132.562 72.2778 132.989 71.6711C133.054 71.57 133.121 71.4352 133.186 71.3341C133.515 70.7948 133.843 70.2555 134.139 69.7162C134.5 69.0421 134.828 68.368 135.124 67.6603C135.419 66.9524 135.682 66.2446 135.912 65.5031C136.142 64.7953 136.306 64.0538 136.47 63.3123C136.602 62.5371 136.733 61.7956 136.799 61.0541C136.865 60.2789 136.93 59.5036 136.93 58.7622C136.93 58.2228 136.898 57.6836 136.865 57.1443C136.799 56.3691 136.7 55.6276 136.602 54.8861C136.47 54.1109 136.306 53.3694 136.109 52.6279C135.88 51.9201 135.65 51.1786 135.387 50.4708C135.124 49.763 134.796 49.0551 134.467 48.381C134.106 47.707 133.745 47.0329 133.35 46.3925C132.923 45.7521 132.497 45.1454 132.037 44.5387C131.544 43.9657 131.051 43.3927 130.526 42.8197C130.263 42.5501 129.968 42.2468 129.672 41.9772C128.194 40.7975 126.65 39.6852 125.107 38.674C124.877 38.5392 124.679 38.4381 124.45 38.337C123.366 37.6292 122.348 37.2582 121.33 36.9212Z" fill="#E0234E"/>
</svg>
