<svg width="200" height="200" viewBox="0 0 200 200" fill="none" xmlns="http://www.w3.org/2000/svg">
<rect width="200" height="200" rx="100" fill="white"/>
<path d="M100 112.256C107.04 112.256 112.748 106.548 112.748 99.508C112.748 92.4677 107.04 86.7604 100 86.7604C92.9597 86.7604 87.2524 92.4677 87.2524 99.508C87.2524 106.548 92.9597 112.256 100 112.256Z" fill="#149ECA"/>
<path d="M148.419 78.4856C145.958 77.5911 143.387 76.6965 140.703 75.9137C141.374 73.23 141.933 70.5463 142.38 67.9744C144.728 53.2141 142.157 42.8147 135 38.7891C132.875 37.5591 130.527 37 127.843 37C120.016 37 110.064 42.8147 100 52.5431C89.9361 42.8147 79.984 37 72.1565 37C69.4728 37 67.1246 37.5591 65 38.7891C57.8435 42.9265 55.2716 53.3259 57.6198 67.9744C58.0671 70.5463 58.6262 73.23 59.2971 75.9137C56.6134 76.6965 54.0415 77.4792 51.5815 78.4856C37.6038 83.853 30 91.2332 30 99.508C30 107.783 37.7157 115.163 51.5815 120.53C54.0415 121.425 56.6134 122.319 59.2971 123.102C58.6262 125.786 58.0671 128.47 57.6198 131.042C55.2716 145.802 57.8435 156.201 65 160.227C67.1246 161.457 69.4728 162.016 72.1565 162.016C80.0958 162.016 90.0479 156.201 100 146.473C110.064 156.201 120.016 162.016 127.843 162.016C130.527 162.016 132.875 161.457 135 160.227C142.157 156.089 144.728 145.69 142.38 131.042C141.933 128.47 141.374 125.786 140.703 123.102C143.387 122.319 145.958 121.537 148.419 120.53C162.396 115.163 170 107.783 170 99.508C170 91.2332 162.396 83.853 148.419 78.4856ZM131.869 44.3802C136.454 47.0639 138.019 55.3387 136.118 67.0799C135.783 69.4281 135.224 71.8882 134.553 74.4601C128.738 73.1182 122.588 72.2236 116.102 71.6645C112.3 66.2971 108.387 61.4888 104.473 57.1278C112.748 48.9649 121.134 43.3738 127.955 43.3738C129.409 43.3738 130.751 43.7093 131.869 44.3802ZM119.345 110.69C117.332 114.268 114.984 117.847 112.524 121.425C108.387 121.76 104.249 121.872 100 121.872C95.639 121.872 91.5016 121.76 87.476 121.425C85.016 117.847 82.7796 114.268 80.7668 110.69C78.6422 107 76.6294 103.198 74.8403 99.508C76.6294 95.8179 78.6422 92.016 80.7668 88.3259C82.7796 84.7476 85.1278 81.1693 87.5879 77.5911C91.7252 77.2556 95.8626 77.1438 100.112 77.1438C104.473 77.1438 108.61 77.2556 112.636 77.5911C115.096 81.1693 117.332 84.7476 119.345 88.3259C121.47 92.016 123.482 95.8179 125.272 99.508C123.371 103.198 121.47 106.888 119.345 110.69ZM128.626 107C130.304 110.914 131.645 114.716 132.875 118.518C129.073 119.412 125.048 120.083 120.799 120.642C122.141 118.518 123.594 116.281 124.824 113.933C126.166 111.585 127.396 109.236 128.626 107ZM100 137.304C97.3163 134.396 94.7444 131.265 92.2843 128.022C94.8562 128.134 97.4281 128.246 100 128.246C102.572 128.246 105.144 128.134 107.716 128.022C105.256 131.265 102.684 134.396 100 137.304ZM79.2013 120.53C74.9521 119.971 70.9265 119.3 67.1246 118.406C68.3546 114.716 69.6965 110.802 71.3738 106.888C72.6038 109.125 73.8339 111.473 75.1757 113.709C76.5176 116.169 77.8594 118.294 79.2013 120.53ZM71.3738 92.016C69.6965 88.1022 68.3546 84.3003 67.1246 80.4984C70.9265 79.6038 74.9521 78.9329 79.2013 78.3738C77.8594 80.4984 76.4058 82.7348 75.1757 85.0831C73.8339 87.4313 72.6038 89.7796 71.3738 92.016ZM100 61.7125C102.684 64.6198 105.256 67.7508 107.716 70.9936C105.144 70.8818 102.572 70.77 100 70.77C97.4281 70.77 94.8562 70.8818 92.2843 70.9936C94.7444 67.7508 97.3163 64.6198 100 61.7125ZM124.824 85.1949L120.799 78.4856C125.048 79.0447 129.073 79.7157 132.875 80.6102C131.645 84.3003 130.304 88.2141 128.626 92.1278C127.396 89.7796 126.166 87.4313 124.824 85.1949ZM63.8818 67.0799C61.9808 55.3387 63.5463 47.0639 68.131 44.3802C69.2492 43.7093 70.5911 43.3738 72.0447 43.3738C78.754 43.3738 87.1406 48.853 95.5272 57.1278C91.6134 61.377 87.6997 66.2971 83.8978 71.6645C77.4121 72.2236 71.262 73.23 65.4473 74.4601C64.7764 71.8882 64.3291 69.4281 63.8818 67.0799ZM36.262 99.508C36.262 94.2524 42.6358 88.6613 53.8179 84.524C56.0543 83.6294 58.5144 82.8466 60.9744 82.1757C62.7636 87.7668 65 93.6933 67.6837 99.6198C65 105.546 62.6518 111.361 60.9744 116.952C45.5431 112.479 36.262 105.77 36.262 99.508ZM68.131 154.636C63.5463 151.952 61.9808 143.677 63.8818 131.936C64.2173 129.588 64.7764 127.128 65.4473 124.556C71.262 125.898 77.4121 126.792 83.8978 127.351C87.6997 132.719 91.6134 137.527 95.5272 141.888C87.2524 150.051 78.8658 155.642 72.0447 155.642C70.5911 155.642 69.2492 155.307 68.131 154.636ZM136.118 131.936C138.019 143.677 136.454 151.952 131.869 154.636C130.751 155.307 129.409 155.642 127.955 155.642C121.246 155.642 112.859 150.163 104.473 141.888C108.387 137.639 112.3 132.719 116.102 127.351C122.588 126.792 128.738 125.786 134.553 124.556C135.224 127.128 135.671 129.588 136.118 131.936ZM146.182 114.492C143.946 115.387 141.486 116.169 139.026 116.84C137.236 111.249 135 105.323 132.316 99.3962C135 93.4697 137.348 87.655 139.026 82.0639C154.457 86.5367 163.738 93.246 163.738 99.508C163.738 104.764 157.252 110.355 146.182 114.492Z" fill="#149ECA"/>
</svg>
