<svg width="200" height="200" viewBox="0 0 200 200" fill="none" xmlns="http://www.w3.org/2000/svg">
<rect width="200" height="200" rx="100" fill="white"/>
<path d="M132.66 81.1674H110.892C110.436 81.1674 109.998 80.9862 109.676 80.6637C109.353 80.3412 109.172 79.9038 109.172 79.4477V73.9951C109.33 71.7887 108.873 69.5817 107.851 67.6197C107.578 67.1583 107.243 66.7179 106.865 66.2775C106.084 65.3167 105.09 64.5511 103.961 64.0415C102.833 63.5318 101.601 63.2922 100.364 63.3415C98.9378 63.4044 97.323 63.9706 96.0856 64.7256C94.7225 65.5855 93.7787 66.4663 93.0238 67.6617C92.1849 68.9829 91.9752 70.5977 91.9752 72.1496C91.9752 73.4708 92.2268 74.792 92.856 75.9874C95.9808 82.0063 100.322 86.0329 110.43 91.1919C114.708 93.3729 119.008 95.533 122.887 98.3432C128.508 102.433 132.388 106.312 135.429 112.289C137.819 117.029 138.427 122.419 138.427 127.725C138.427 132.863 137.84 138.064 135.701 142.74C131.633 151.506 126.096 155.848 115.715 158.49C110.85 159.748 105.796 160 100.762 160C94.345 160 87.8647 159.581 81.762 157.546C72.9539 154.589 68.0465 150.5 64.691 143.915C61.4194 137.497 61 130.073 61 122.88C61 120.154 63.1811 117.952 65.9074 117.952H85.5579C88.1583 117.952 90.2555 120.049 90.2555 122.649C90.2555 127.095 90.0038 132.401 93.611 134.981C94.345 135.505 95.2048 135.925 96.2744 136.365C99.1685 137.497 100.846 137.644 104.034 136.365C105.984 135.274 106.991 134.352 107.683 132.863C108.207 131.73 108.312 130.472 108.312 129.235C108.355 127.575 108.002 125.929 107.285 124.432C104.411 118.791 99.6928 115.121 90.2555 109.207C78.8469 103.167 72.3247 98.4481 67.2496 90.6047C63.6755 85.2155 61.825 78.8668 61.9437 72.4013C62.125 67.1249 63.4109 61.9452 65.7186 57.1968C71.1293 45.956 78.3646 41.8036 93.6949 40C102.293 40 111.101 40.1468 118.987 43.5023C125.362 46.2286 129.64 50.2132 133.059 57.029C136.016 62.9221 136.918 69.612 137.295 76.2181C137.332 76.8548 137.239 77.4924 137.02 78.0916C136.802 78.6909 136.464 79.2391 136.025 79.7027C135.587 80.1663 135.059 80.5354 134.473 80.7872C133.887 81.0391 133.256 81.1685 132.618 81.1674H132.66Z" fill="#FF4785"/>
</svg>
