<svg width="200" height="200" viewBox="0 0 200 200" fill="none" xmlns="http://www.w3.org/2000/svg">
<rect width="200" height="200" rx="100" fill="white"/>
<path d="M25.928 100.651L58.182 113.721V122.87L20 105.179V99.811L25.928 100.651ZM58.182 89.9157L25.9747 103.171L20 103.825V98.4107L58.182 80.7667V89.9157Z" fill="#27212E"/>
<path d="M173.325 102.518L140.138 89.5887V80.6733L180 98.3171V103.779L173.325 102.518ZM140.138 113.907L173.419 100.698L180 99.7174V105.132L140.138 122.823V113.907Z" fill="#27212E"/>
<path fill-rule="evenodd" clip-rule="evenodd" d="M131.46 57.0634C131.275 59.9912 129.956 63.0485 130.324 65.8947C132.628 69.9683 137.698 70.6183 141.881 70.8975C144.779 71.4154 144.743 69.4965 144.548 67.3407C144.56 63.8947 144.572 60.4488 144.584 57.0028C140.209 57.0185 135.833 56.9594 131.46 57.0634ZM96.9639 65.2519C89.8416 66.4604 82.622 69.8638 76.6969 73.9612C71.9277 77.6728 80.7909 81.27 84.0062 81.8713C90.4757 81.9501 96.2137 77.5867 100.463 73.057C101.851 71.1523 103.584 68.2372 101.841 66.0301C100.51 64.8758 98.5739 65.1558 96.9639 65.2519ZM112.119 75.6098C106.264 76.7248 100.692 79.1386 95.7616 82.4991C92.1473 83.634 89.1684 87.6023 93.647 89.5906C98.3501 93.3383 103.801 92.4201 108.132 89.89C112.098 87.5324 116.383 84.6234 118.218 80.1852C119.951 75.3232 115.479 75.1427 112.119 75.6098ZM128.732 94.4495C127.641 99.0044 123.054 101.075 120.614 104.685C118.618 107.317 119.542 110.419 121.814 112.491C122.92 114.785 124.859 116.066 126.938 114.074C132.294 110.433 133.775 103.342 133.552 97.1976C133.948 94.6598 131.036 96.9539 128.732 94.4495ZM108.353 103.005C101.242 104.222 94.1292 107.687 88.2015 111.777C83.5997 115.484 92.2666 118.945 95.5084 119.494C102.098 119.504 107.976 115.257 112.142 110.434C113.591 108.519 115.347 104.799 112.478 103.277C111.195 102.733 109.705 102.893 108.353 103.005Z" fill="#B956A6"/>
<path fill-rule="evenodd" clip-rule="evenodd" d="M76.6969 73.9612C71.2278 76.1496 65.9515 78.8068 60.7418 81.5892C59.7734 85.1895 60.5498 89.6477 60.2988 93.5954C60.2799 109.828 60.2892 126.06 60.2861 142.293C64.3086 142.293 68.3313 142.293 72.3539 142.293C74.79 139.998 77.8424 138.319 80.4887 136.236C90.6796 128.927 100.867 121.59 111.045 114.302C111.794 114.638 111.314 109.896 109.671 113.19C105.779 116.853 100.612 119.866 95.1435 119.572C92.0402 118.551 87.0377 116.819 87.0063 113.016C89.1908 110.444 82.9758 114.363 81.2756 114.924C75.7469 117.578 70.3491 120.542 64.8093 123.147C66.1411 121.718 68.6319 120.385 70.3971 118.966C83.0111 109.912 95.6218 100.822 108.266 91.7738C110.698 90.0664 113.047 88.2037 115.554 86.6078C115.783 87.492 116.213 82.3805 114.348 85.5274C110.547 89.295 105.42 92.0995 100.013 92.138C96.9722 91.2147 90.4949 89.0071 91.937 85.0805C92.6403 83.7026 85.4046 88.0178 88.6015 85.5845C92.0043 83.098 95.434 80.6556 98.863 78.195C100.595 78.0646 100.226 71.6321 97.873 75.7814C93.9201 79.2546 88.7266 82.4324 83.2823 81.6793C80.224 80.7989 76.5542 79.0936 75.4428 75.8954C75.0745 75.1272 77.5019 73.9306 76.6969 73.9612ZM99.3554 77.9321C99.9049 77.6151 99.0521 78.7996 99.3554 77.9321Z" fill="#FCCC44"/>
<path fill-rule="evenodd" clip-rule="evenodd" d="M133.911 69.6629C132.203 77.8169 130.337 86.3501 128.732 94.4495C133.343 100.261 133.79 90.7781 134.597 88.0967C135.9 82.4921 137.444 78.2601 137.608 72.4573C137.954 70.4773 135.626 69.2777 133.911 69.6629ZM139.201 76.0569C139.411 76.214 139.057 76.893 139.201 76.0569ZM133.822 94.3398C134.043 94.8175 134.043 93.8615 133.822 94.3398Z" fill="#62777F"/>
<path fill-rule="evenodd" clip-rule="evenodd" d="M136.935 70.5861C138.374 78.6671 133.608 88.4833 132.049 96.1018C135.589 93.4973 138.323 81.6804 139.022 77.055C139.202 76.5259 139.424 75.1946 139.472 75.1469C139.695 74.0238 141.768 72.1215 141.881 70.8976C143.088 70.0459 135.95 69.9087 136.935 70.5861ZM134 94.3398C133.778 94.8175 133.778 93.8615 134 94.3398Z" fill="#4E5E67"/>
<path fill-rule="evenodd" clip-rule="evenodd" d="M76.8165 74.0957C74.8213 76.0935 75.57 75.6055 77.0554 73.9442L76.8165 74.0957ZM98.3988 75.0852C96.0874 78.5585 87.752 81.4629 86.7024 81.6879C91.7164 80.7489 96.39 77.63 99.6786 73.9757C99.156 74.2085 98.8457 74.7559 98.3988 75.0852ZM75.4455 76.213C76.6914 79.2085 81.2215 81.1992 83.4227 81.6634C80.4174 80.6954 76.8798 78.9779 75.4455 76.213ZM99.1759 77.9453C98.5469 78.688 96.3066 79.7991 95.1256 80.8881C92.5923 82.7569 89.9718 84.4932 87.4673 86.4084C89.0619 86.3398 93.7349 82.8492 91.3394 86.3911C93.3694 89.8849 97.7891 92.3144 101.819 92.0925C107.141 91.257 112.048 88.3147 115.576 84.2226C111.294 88.4602 105.632 92.4484 99.367 91.8989C96.3349 91.1987 88.0495 86.9188 93.5919 83.9187C95.5462 82.3113 98.9156 81.4692 99.2971 78.6444C99.217 78.2918 99.8742 77.9475 99.1759 77.9453ZM84.0062 81.8714C86.0227 82.135 86.0227 81.608 84.0062 81.8714ZM115.426 86.6963C107.425 92.2708 99.5395 98.0632 91.6074 103.738C82.6182 110.171 73.6674 116.629 64.6802 123.057C68.0592 121.918 71.4447 119.693 74.8016 118.156C79.4238 115.71 84.2986 113.779 88.624 110.808C97.1761 105.773 106.221 100.977 112.798 93.2742C114.234 91.5905 115.674 88.8802 115.738 87.0573C115.531 87.1157 115.688 86.3283 115.426 86.6963ZM88.2015 111.777C86.762 113.404 86.1773 114.567 87.6712 112.498C87.6449 112.738 88.8837 111.214 88.2015 111.777ZM110.102 112.556C106.31 116.554 100.701 119.438 95.4391 119.633C101.523 119.677 107.011 116.066 111.133 111.806C110.862 111.479 110.314 112.567 110.102 112.556ZM111.26 113.813C98.5206 123.087 85.3412 132.706 72.5584 141.947C74.5724 142.578 78.9568 142.875 80.9575 140.297C85.2155 137.359 90.0019 135.198 94.2735 132.221C100.459 128.207 107.082 123.82 110.595 117.074C110.762 116.17 112.005 114.542 111.26 113.813ZM87.0153 114.401C87.6064 116.897 94.9967 119.761 94.1952 119.213C91.4702 118.257 88.767 116.768 87.0153 114.401Z" fill="#DC9624"/>
</svg>
