<svg width="200" height="200" viewBox="0 0 200 200" fill="none" xmlns="http://www.w3.org/2000/svg">
<rect width="200" height="200" rx="100" fill="white"/>
<path d="M146.526 55.7487C151.199 56.8332 155.447 59.2773 158.733 62.7728C160.541 64.656 162.114 66.7527 163.415 69.0165C163.415 69.2662 154.986 74.9636 149.851 78.1478C149.664 78.2727 148.914 77.461 148.087 76.2279C147.15 74.6103 145.818 73.2565 144.215 72.293C142.613 71.3295 140.793 70.7876 138.925 70.7179C133.009 70.312 129.2 73.4183 129.231 78.5225C129.182 79.7933 129.473 81.0541 130.074 82.175C131.37 84.8754 133.789 86.4831 141.375 89.761C155.345 95.7706 161.324 99.7353 165.039 105.37C169.191 111.614 170.112 121.697 167.302 129.159C164.18 137.275 156.532 142.785 145.715 144.612C140.774 145.177 135.782 145.125 130.855 144.455C123.302 143.211 116.346 139.585 111 134.107C109.205 132.124 105.708 126.958 105.927 126.583C106.497 126.16 107.097 125.779 107.722 125.444L114.949 121.448L120.553 118.201L121.723 119.934C123.699 122.76 126.213 125.168 129.122 127.02C135.366 130.298 143.888 129.845 148.103 126.052C149.518 124.662 150.401 122.82 150.597 120.847C150.794 118.873 150.292 116.893 149.18 115.251C147.619 113.081 144.497 111.255 135.772 107.446C125.704 103.107 121.364 100.422 117.4 96.1452C114.924 93.3229 113.097 89.9931 112.046 86.3895C111.261 82.2725 111.145 78.056 111.702 73.9021C113.778 64.1777 121.068 57.3877 131.713 55.3741C136.643 54.7641 141.637 54.9009 146.526 55.7799V55.7487ZM100.729 63.9279V71.9198H75.3954V144.081H57.4292V71.9042H32.0332V64.0996C31.954 61.4082 32.0166 58.7145 32.2205 56.0297C32.3453 55.8892 47.8296 55.8892 66.5606 55.8892H100.635L100.729 63.9279Z" fill="#3178C6"/>
</svg>
